<?xml version="1.0" standalone="no"?>
<!DOCTYPE svg PUBLIC "-//W3C//DTD SVG 1.1//EN" "http://www.w3.org/Graphics/SVG/1.1/DTD/svg11.dtd" >
<!--
2013-9-30: Created.
-->
<svg>
<metadata>
Created by iconfont
</metadata>
<defs>

<font id="iconfont" horiz-adv-x="1024" >
  <font-face
    font-family="iconfont"
    font-weight="500"
    font-stretch="normal"
    units-per-em="1024"
    ascent="896"
    descent="-128"
  />
    <missing-glyph />
    
    <glyph glyph-name="x" unicode="x" horiz-adv-x="1001"
d="M281 543q-27 -1 -53 -1h-83q-18 0 -36.5 -6t-32.5 -18.5t-23 -32t-9 -45.5v-76h912v41q0 16 -0.5 30t-0.5 18q0 13 -5 29t-17 29.5t-31.5 22.5t-49.5 9h-133v-97h-438v97zM955 310v-52q0 -23 0.5 -52t0.5 -58t-10.5 -47.5t-26 -30t-33 -16t-31.5 -4.5q-14 -1 -29.5 -0.5
t-29.5 0.5h-32l-45 128h-439l-44 -128h-29h-34q-20 0 -45 1q-25 0 -41 9.5t-25.5 23t-13.5 29.5t-4 30v167h911zM163 247q-12 0 -21 -8.5t-9 -21.5t9 -21.5t21 -8.5q13 0 22 8.5t9 21.5t-9 21.5t-22 8.5zM316 123q-8 -26 -14 -48q-5 -19 -10.5 -37t-7.5 -25t-3 -15t1 -14.5
t9.5 -10.5t21.5 -4h37h67h81h80h64h36q23 0 34 12t2 38q-5 13 -9.5 30.5t-9.5 34.5q-5 19 -11 39h-368zM336 498v228q0 11 2.5 23t10 21.5t20.5 15.5t34 6h188q31 0 51.5 -14.5t20.5 -52.5v-227h-327z" />
    

    
    <glyph glyph-name="dangan" unicode="&#983155;" d="M957.1549 90.430848c0-42.928718-34.80714-77.734432-77.737617-77.734432L140.90992 12.696416c-42.930477 0-77.737617 34.805714-77.737617 77.734432L63.172303 298.411693c-1.252578 5.428639 0.075728 12.033058 4.62144 19.224854L259.490385 640.56947c11.425682 18.085914 38.261963 32.870642 59.631519 32.870642l400.227359 0c21.370579 0 47.636855-15.144932 58.341077-33.648354l174.833911-321.394894c2.922682-5.086855 4.288852-9.868765 4.421887-14.195304l0.208763 0L957.1549 90.430848zM102.041112 323.634144 102.041112 323.634144l0-19.432585 0 0L102.041112 323.634144zM102.041112 90.430848c0-21.464871 17.404082-38.867216 38.868809-38.867216l738.507363 0c21.46575 0 38.868809 17.403369 38.868809 38.867216l0 194.33608L685.07324 284.766928l0-77.734432c0-21.464871-17.404082-38.867216-38.867785-38.867216L374.122772 168.16528c-21.464727 0-38.868809 17.403369-38.868809 38.867216l0 77.734432L102.041112 284.766928 102.041112 90.430848zM646.205455 226.466104l0 38.867216 0 19.433608L646.205455 323.634144 374.122772 323.634144l0-38.866193 0-19.433608 0-38.867216c0-10.740622 8.692319-19.432585 19.434404-19.432585l233.212851 0C637.513136 207.033519 646.205455 215.725482 646.205455 226.466104zM755.257525 600.924541c-10.704221 18.503423-36.971521 33.648354-58.3421 33.648354L340.530346 634.572896c-21.370579 0-48.205837-14.783705-59.631519-32.870642L122.803822 323.823456l578.192715-0.190335 3.511107 0 196.071454 0L755.257525 600.924541zM257.517369 401.368576c0 10.741645 8.692319 19.433608 19.434404 19.433608l466.425703 0c10.742085 0 19.434404-8.691963 19.434404-19.433608s-8.692319-19.433608-19.434404-19.433608L276.95075 381.934968C266.208665 381.935991 257.517369 390.626931 257.517369 401.368576zM704.508668 459.6694l-388.688086 0c-10.742085 0-19.434404 8.691963-19.434404 19.433608 0 10.741645 8.692319 19.433608 19.434404 19.433608l388.688086 0c10.742085 0 19.434404-8.691963 19.434404-19.433608C723.943072 468.362386 715.250753 459.6694 704.508668 459.6694zM665.638836 537.403832 354.689391 537.403832c-10.742085 0-19.434404 8.691963-19.434404 19.433608 0 10.722202 8.692319 19.433608 19.434404 19.433608l310.949445 0c10.742085 0 19.434404-8.711406 19.434404-19.433608C685.07324 546.095795 676.380921 537.403832 665.638836 537.403832z"  horiz-adv-x="1024" />

    
    <glyph glyph-name="xiazai" unicode="&#58949;" d="M548.571429 11.999086 548.571429 457.142857 475.428571 457.142857 475.428571 11.999086 373.2864 114.143086 321.570743 62.429257 512-128 702.429257 62.429257 650.7136 114.143086ZM802.177829 639.213714C784.4992 783.857371 661.429029 896 512 896S239.5008 783.857371 221.822171 639.213714C98.000457 630.999771 0 528.213943 0 402.285714c0-131.285943 106.428343-237.714286 237.714286-237.714286l128 0 0 73.142857-128 0c-90.750171 0-164.571429 73.821257-164.571429 164.571429 0 86.213486 67.428571 158.250057 153.536 163.927771l60.392229 4.035657 7.356343 60.106971C307.856457 740.106971 401.3568 822.857143 512 822.857143s204.143543-82.750171 217.570743-192.4992l7.356343-60.106971 60.392229-4.035657C883.428571 560.535771 950.857143 488.4992 950.857143 402.285714c0-90.750171-73.821257-164.571429-164.571429-164.571429l-128 0 0-73.142857 128 0c131.285943 0 237.714286 106.428343 237.714286 237.714286C1024 528.213943 925.999543 630.999771 802.177829 639.213714z"  horiz-adv-x="1024" />

    
    <glyph glyph-name="xiugai" unicode="&#58950;" d="M468.096 480.64 334.72 614.016 366.272 645.504 189.248 822.592 64 697.28 241.024 520.256 272.512 551.808 405.824 418.432ZM906.688 42.048c18.048 27.776-0.832 85.44-0.832 85.44l-204.224 204.224c-116.864-9.216-185.856-157.952-185.856-157.952s183.744-191.232 214.976-214.976 84.032-8.64 84.032-8.64S888.64 14.336 906.688 42.048zM749.056 0.128l-166.656 166.656c-9.6 9.472-9.6 25.024-0.064 34.56 9.472 9.472 25.088 9.472 34.56 0l166.656-166.656c9.472-9.472 9.472-25.088 0-34.56C774.08-9.408 758.592-9.408 749.056 0.128zM824.64 75.712l-166.656 166.656c-9.472 9.536-9.472 25.152 0 34.56 9.536 9.6 25.024 9.6 34.56 0l166.656-166.656c9.472-9.472 9.472-25.024 0-34.624C849.6 66.112 834.176 66.176 824.64 75.712zM386.304 140.736c0.384 3.392 1.28 6.656 2.88 8.832 4.608 6.08 160.448 192.448 271.68 219.968 79.104-25.344 169.28-6.72 232.128 56.064 52.288 52.288 73.92 123.584 65.152 191.616l-158.592-165.568-159.232 26.688L590.144 622.144l175.424 191.936c-69.568 10.624-143.04-10.88-196.608-64.448-66.688-66.624-83.648-164.032-51.136-246.4C510.464 467.776 487.936 417.152 428.544 353.792c-122.88-131.008-122.88-131.008-122.88-131.008s-1.28-1.664-4.032-3.328c-48.704 16.32-104.576 5.248-143.36-33.472-54.592-54.592-54.592-143.232 0-197.824s143.104-54.592 197.76 0.064C397.312 29.504 407.296 90.048 386.304 140.736zM201.664 26.752c-31.552 31.488-31.552 82.688 0 114.24 31.552 31.488 82.688 31.488 114.176-0.064s31.552-82.688 0-114.176C284.352-4.8 233.216-4.8 201.664 26.752z"  horiz-adv-x="1024" />

    
    <glyph glyph-name="supplier" unicode="&#58887;" d="M991.121 412.727c0 266.484-216.788 483.273-483.273 483.273s-483.273-216.788-483.273-483.273c0-127.428 49.938-243.16 130.811-329.598v-210.51l109.734-0.374 115.014 0.367 0.007 74.495c40.755-11.198 83.442-17.681 127.706-17.681 43.615 0 85.69 6.333 125.909 17.216l0.007-74.031 115.011-0.367 109.738 0.374 0 208.534c81.952 86.638 132.607 203.187 132.607 331.575zM324.644-69.039h-115.482v102.573c34.976-27.611 73.691-50.61 115.482-67.802v-34.771zM81.308 412.727c0 235.182 191.359 426.541 426.541 426.541s426.541-191.359 426.541-426.541c0-235.21-191.359-426.568-426.541-426.568s-426.541 191.358-426.541 426.568zM689.252-69.039v34.111c41.759 16.984 80.475 39.741 115.486 67.12v-101.231l-115.486-0zM390.354 685.262c-18.654 3.752-41.698 11.828-62.308 21.829-4.935-33.653-20.548-94.106-36.090-131.477-22.438-54.201-69.591-128.039-99.46-161.661 17.436-11.863 35.933-12.767 44.653-27.094 20.544 29.263 35.477 51.058 54.806 88.464v-204.364c0-44.841-3.109-98.433-6.893-133.945h56.092l0 443.599c19.33 39.234 42.373 78.498 49.875 85.965 13.044 13.077 12.435 16.186-0.674 18.685zM551.131 284.036c-19.33 6.248-36.765 14.327-55.487 23.683-19.935-39.87-82.852-114.007-129.552-142.661 26.156-6.861 47.985-20.58 53.593-32.407 99.007 110.902 118.333 129.587 127.728 133.949 18.65 8.107 18.045 13.074 3.718 17.436zM663.857 518.305c36.761-0.641 66.701-3.109 91.639-5.608v54.842c-25.547-2.503-54.877-5.002-91.639-5.612v92.18c0 20.58 2.499 32.404 8.715 36.156 8.787 4.967 8.111 9.969-2.432 9.969-23.11 0-37.438 0.605-56.092 3.714 1.894-13.683 2.499-43.588 2.499-97.179v-44.841h-89.139v91.572c0 20.544 2.503 32.408 8.787 36.121 8.72 5.002 8.044 9.969-2.499 9.969-23.047-0.609-38.051 0.645-56.7 3.752 1.824-14.327 2.499-31.763 2.499-97.183v-44.231c-29.94 1.218-55.483 3.109-81.638 5.612v-54.842c26.156 2.499 51.093 4.358 81.638 4.967v-139.556c-38.655 0.641-69.204 2.499-96.575 5.608v-56.666c46.091 4.358 110.902 6.217 196.257 6.217s150.772-1.858 196.863-6.217v56.666c-32.439-3.714-65.417-5.608-112.183-5.608v140.199zM616.547 378.107h-89.139v140.198h89.139v-140.198zM652.637 303.971l-42.307-31.763c36.090-32.404 84.071-90.963 111.511-131.446l49.804 42.373c-41.088 47.949-72.851 79.104-119.008 120.836z"  horiz-adv-x="1024" />

    
    <glyph glyph-name="daohangshouye" unicode="&#58885;" d="M104.748753 276.75208c-9.18387-0.001024-18.350333 3.600233-25.206749 10.753596-13.340112 13.918647-12.870115 36.015639 1.048532 49.355751L455.824695 696.482292c15.076743 14.456225 35.025473 22.421586 56.167113 22.421586 21.133448 0 41.082179-7.960242 56.173257-22.413395l375.241328-359.629056c13.918647-13.339088 14.38762-35.43608 1.047508-49.355751-13.339088-13.917623-35.43608-14.388644-49.355751-1.048532L519.866038 646.078009c-4.187984 4.011864-11.542043 4.020055-15.727979 0.006144L128.897754 286.457145C122.133494 279.973449 113.433956 276.753104 104.748753 276.75208zM779.622424-118.911046 639.994624-118.911046c-44.911778 0-81.450659 36.537857-81.450659 81.448611L558.543965 113.804684l-93.08793 0 0-151.268143c0-44.910754-36.538881-81.448611-81.450659-81.448611L244.375528-118.91207c-44.911778 0-81.450659 36.537857-81.450659 81.448611L162.924869 265.071803c0 19.279062 15.628656 34.907718 34.907718 34.907718 19.279062 0 34.907718-15.628656 34.907718-34.907718l0-302.534238c0-6.415091 5.220133-11.633175 11.636247-11.633175l139.628824 0c6.416115 0 11.636247 5.219109 11.636247 11.633175L395.641623 148.712402c0 19.279062 15.628656 34.907718 34.907718 34.907718l162.903366 0c19.279062 0 34.907718-15.628656 34.907718-34.907718l0-186.174837c0-6.415091 5.220133-11.633175 11.635223-11.633175l139.6278 0c6.417138 0 11.637271 5.219109 11.637271 11.633175L791.260719 265.071803c0 19.279062 15.628656 34.907718 34.907718 34.907718s34.907718-15.628656 34.907718-34.907718l0-302.534238C861.075131-82.374212 824.535226-118.911046 779.622424-118.911046zM861.369007 486.197364c-19.279062 0-34.907718 15.628656-34.907718 34.907718l0 127.994624L698.468712 649.099706c-19.279062 0-34.907718 15.628656-34.907718 34.907718s15.628656 34.907718 34.907718 34.907718l127.994624 0c38.495663 0 69.813388-31.318749 69.813388-69.815436l0-127.994624C896.276724 501.826019 880.648069 486.197364 861.369007 486.197364z"  horiz-adv-x="1024" />

    
    <glyph glyph-name="anquanfanghu" unicode="&#59115;" d="M976.601537 63.991477l-16.624616 0c0 34.873218 0 58.308953 0 112.370167 0 81.246339-93.994675 304.42204-203.489355 336.920166-5.124712 1.500165-9.749029 3.374861-14.124682 5.375422l-30.247878 21.810727c-52.622446 55.997307-40.997699 163.492448-192.365004 163.492448-145.243846 0-137.36849-125.993429-207.615321-176.115941l-30.499611-15.062029c-102.993621-33.811027-217.614036-227.301667-217.614036-336.420793 0-48.37266-0.124843-82.370952 0-112.370167l-16.748436 0c-26.123958 0-47.248048-28.186942-47.248048-63.997507l0-62.996714c0-35.87401 21.124089-64.997276 47.248048-64.997276l929.32894 0c26.123958 0 47.372891 29.123266 47.372891 64.997276l0 62.996714C1023.974428 35.804536 1002.726519 63.991477 976.601537 63.991477zM959.976921-63.001721c0-0.313131 0-0.687661-0.029676-1.000792l-895.893466 0c-0.031722 0.313131-0.031722 0.687661-0.031722 1.000792l0 62.996714c17.030868 0 33.342353 6.812143 45.34163 18.812443 12.032022 12.061698 18.718299 28.435605 18.654854 45.434751-0.093121 18.998684-0.062422 39.623401-0.029676 64.559302l0.029676 47.561179c0 79.932415 85.716136 222.489062 153.773095 264.924506 3.719714-155.054273 7.03113-162.679944 8.406452-165.679251 1.125636-2.812043 2.968608-10.43669 5.436821-20.12432 14.468512-56.87121 21.81175-78.30843 34.217279-85.496126 2.749621-1.625009 5.905494-2.437513 9.061368-2.437513 5.562687 0 10.998484 2.499935 13.842249 7.374961 4.437051 7.687069 2.875488 16.623593-4.780882 21.061668-6.093782 7.562225-17.186411 51.059859-21.343076 67.433766-3.218295 12.624516-5.873772 22.311123-6.43659 23.061206-2.093682 9.998715-4.905725 91.182633-6.749721 170.615675l27.029583 13.374599c3.062752 1.500165 6.031361 3.311416 8.843404 5.249556 36.279239 25.936694 56.153873 61.434127 73.684114 92.807641 28.404906 50.810173 42.091613 71.433866 96.746343 71.433866 66.589539 0 76.776542-21.435174 99.15111-68.49698 11.374037-23.936132 24.311685-51.122281 46.591086-74.807703 2.781344-3.000331 5.874795-5.68753 9.187234-8.12402l30.249925-21.81175c1.780551-1.249456 3.74939-2.187827 5.655808-3.250017-1.845019-81.433604-4.71846-166.554177-6.157227-174.866485-1.311877-2.875488-3.968378-12.624516-7.186672-25.310431-4.12392-16.311485-15.124451-59.74772-19.15525-65.683914-7.655346-4.438075-10.250448-14.187103-5.813397-21.874172 2.969632-5.062291 8.344031-7.936755 13.843273-7.936755 2.750644 0 5.499242 0.687661 8.031922 2.186803 12.405529 7.186672 19.717045 28.624916 34.123135 85.433704 2.437513 9.686607 4.281509 17.374699 5.280255 19.936032 1.501189 3.311416 4.968147 10.999508 8.750283 174.80304 70.966215-26.935439 153.679974-210.363919 153.679974-273.798608l0-112.370167c0-35.311192 28.654592-63.997507 63.996484-63.997507L959.976921-63.001721z"  horiz-adv-x="1024" />

    
    <glyph glyph-name="cost" unicode="&#58982;" d="M62.976 190.656c19.52-19.648 42.688-34.048 67.2-46.464 41.6-21.056 85.76-35.2 130.944-46.016 68.096-16.384 137.408-24.64 207.36-27.072 65.536-2.304 130.944 0.384 196.032 9.024 50.24 6.656 99.84 16.576 148.16 31.744 42.048 13.184 82.688 29.568 119.232 54.656 19.52 13.376 37.056 28.8 49.088 49.6 12.032 20.928 14.656 42.816 5.312 65.6-7.488 18.496-20.48 32.64-35.392 45.376-3.136 2.688-6.464 5.184-9.6 7.744-24.448-26.304-39.552-38.464-63.424-51.648-39.872-22.080-82.56-36.992-126.592-48.128-44.736-11.392-90.176-19.264-136.192-22.656-34.688-2.624-69.504-4.672-104.32-4.992-54.592-0.384-108.992 3.776-162.944 12.48-50.56 8.128-100.096 19.776-147.968 38.4-31.552 12.288-61.888 27.008-88.384 48.384-10.304 8.256-19.392 18.048-29.632 27.776-5.888-5.12-12.672-10.56-18.88-16.704-14.272-14.016-25.472-29.952-29.44-50.112-0.448-2.752-1.024-5.44-1.536-8.192 0-3.456 0-6.848 0-10.368 0.448-2.304 0.96-4.544 1.344-6.848 3.904-20.608 15.232-36.992 29.632-51.584zM961.344 126.912c-6.336 6.208-13.248 11.712-19.968 17.6-20.032-25.472-45.504-42.496-72.96-57.024-36.928-19.52-76.224-32.768-116.544-43.008-63.68-16.192-128.576-24.32-194.112-26.944-78.656-3.136-156.8 1.344-234.304 15.808-53.44 9.92-105.536 24.256-154.816 47.68-23.616 11.264-46.272 24.32-65.664 42.112-7.104 6.464-13.504 13.696-20.672 21.056-6.4-5.568-13.184-11.072-19.456-17.152-14.208-14.080-25.344-30.080-29.312-50.176-0.576-2.88-1.088-5.824-1.536-8.64 0-3.2 0-6.272 0-9.408 0.256-0.768 0.64-1.472 0.704-2.24 2.112-19.264 11.328-35.136 23.744-49.408 16.768-19.264 37.376-33.536 59.456-45.952 39.616-22.208 82.112-37.12 125.888-48.768 81.344-21.568 164.416-30.912 248.448-32.576 59.008-1.152 117.76 2.048 176.32 9.92 48.192 6.464 95.744 15.936 142.336 30.208 43.456 13.376 85.44 30.080 123.2 55.936 19.52 13.312 36.992 28.8 49.088 49.536 9.92 17.152 13.632 35.392 8.832 54.976-4.672 18.496-15.36 33.344-28.672 46.464zM103.040 362.304c29.888-21.888 63.168-37.184 97.984-49.344 72-25.152 146.624-37.312 222.464-43.008 28.16-2.112 56.512-2.688 84.736-3.968 46.912 0.576 93.76 2.816 140.352 8.32 44.032 5.248 87.68 12.928 130.56 24.512 46.592 12.544 91.392 29.056 132.032 55.424 24.512 15.872 46.016 35.008 61.312 60.288 16.96 27.968 23.296 58.112 17.088 90.368-5.504 28.416-19.904 52.352-40.128 72.768-26.944 27.264-59.648 45.632-94.528 60.544-45.76 19.52-93.632 31.68-142.4 40.768-51.136 9.472-102.656 14.592-154.624 16.512-61.248 2.304-122.432 0.192-183.36-7.232-39.872-4.8-79.36-11.712-118.336-21.632-44.928-11.52-88.512-26.56-128.768-50.048-27.328-15.936-52.032-35.008-69.76-61.568-27.712-41.536-31.808-85.248-9.792-130.56 12.544-25.728 32.32-45.44 55.168-62.144zM205.44 502.656c33.152 17.152 68.608 27.392 104.832 35.584 41.856 9.408 84.224 14.784 126.976 17.92 47.808 3.52 95.616 3.712 143.424 0.64 59.712-3.84 118.656-12.096 176.192-29.248 28.608-8.512 56.64-18.88 81.6-35.712 4.48-3.008 8.64-6.656 13.12-10.112-9.6-9.344-20.288-15.808-31.424-21.504-32.064-16.448-66.24-26.688-101.184-34.688-43.968-10.112-88.512-15.808-133.44-18.944-46.080-3.264-92.224-3.456-138.304-0.576-59.776 3.776-119.040 11.904-176.64 28.928-29.312 8.64-57.92 19.136-83.456 36.288-3.136 2.112-6.080 4.48-9.024 6.784-1.152 0.96-2.24 2.112-3.584 3.456 9.088 9.088 19.84 15.424 30.912 21.184z"  horiz-adv-x="1024" />

    
    <glyph glyph-name="tongzhi" unicode="&#59358;" d="M924.949333 857.322667c-17.962667 0-35.712-5.056-51.349333-14.634667l-443.477333-192.064L98.837333 650.624C44.330667 650.624 0 606.293333 0 551.808l0-232.405333c0-54.506667 44.330667-98.837333 98.837333-98.837333l30.293333 0 0-211.050667c0-54.506667 44.330667-98.88 98.837333-98.88 54.464 0 98.816 44.373333 98.837333 98.88L326.805333 220.586667l102.72 0 443.584-217.664c15.786667-9.749333 33.685333-14.912 51.882667-14.912 54.613333 0 99.008 44.416 99.008 99.008L1024 758.378667C1024 812.928 979.562667 857.322667 924.949333 857.322667zM42.730667 319.424 42.730667 551.808c0 30.912 25.173333 56.085333 56.106667 56.085333l314.304 0 0-344.554667-107.690667 0L150.506667 263.338667 98.837333 263.338667C67.904 263.338667 42.730667 288.490667 42.730667 319.424zM284.053333 9.536c0-30.954667-25.194667-56.128-56.106667-56.128-30.912 0-56.085333 25.173333-56.085333 56.128L171.861333 220.586667l112.192 0L284.053333 9.536zM981.269333 86.997333c0-34.752-29.205333-56.256-56.277333-56.256-10.624 0-20.629333 3.008-29.930667 8.917333-0.682667 0.426667-1.386667 0.789333-2.069333 1.130667L455.893333 255.253333 455.893333 615.189333l436.181333 188.906667c1.002667 0.448 2.026667 0.981333 2.986667 1.578667 9.28 5.930667 19.306667 8.917333 29.930667 8.917333 27.072 0 56.277333-21.482667 56.277333-56.213333L981.269333 86.997333z"  horiz-adv-x="1024" />

    
    <glyph glyph-name="hezuohuobanguanli" unicode="&#59152;" d="M512.32 459.039c46.589 20.99 79.162 67.643 79.162 121.911 0 73.851-60.092 133.942-133.942 133.942s-133.942-60.028-133.942-133.942c0-54.268 32.574-100.921 79.098-121.911 17.663 4.544 35.837 7.679 54.844 7.679 19.071 0 37.181-3.136 54.78-7.679zM367.69 580.951c0 49.596 40.317 89.786 89.914 89.786 49.532 0 89.85-40.253 89.85-89.786s-40.317-89.914-89.85-89.914c-49.596 0-89.914 40.445-89.914 89.914zM498.433 267.245h-217.008c10.943 87.482 85.754 155.381 176.179 155.381 46.397 0 88.442-18.047 120.055-47.293 9.599 6.784 19.135 13.759 29.054 19.007l9.279 4.8c-27.966 28.798-63.611 49.596-103.673 59.964-16.703-7.615-35.197-12.095-54.716-12.095s-38.077 4.48-54.844 12.031c-95.545-24.51-166.708-110.712-166.708-213.809 0-12.223 9.919-22.078 22.014-22.078l211.633-3.968c-0 0 26.11 42.429 28.734 48.061zM512.704 458.719c-14.783 15.807-32.638 15.807-51.644 15.807s-44.285 0-57.98-15.807c16.831-8.319 35.325-13.247 54.844-13.247 19.583 0 38.013 4.928 54.78 13.247zM769.71 182.707c-31.23 15.167-68.923 2.176-84.154-29.118-15.167-31.23-2.176-68.923 29.118-84.154 5.696-2.816 11.647-3.648 17.663-4.608 26.686-4.224 54.076 8.127 66.555 33.662 11.647 24.254 6.208 51.964-11.263 70.523-5.056 5.376-10.879 10.239-17.919 13.695zM941.921 101.689c20.671 5.184 37.693 10.175 51.132 14.911 0.32 13.823-0.128 27.902-2.176 41.981-0.064 1.216-0.256 2.432-0.384 3.648-13.951 3.328-31.23 6.4-52.348 9.279-2.752 12.031-6.592 23.55-11.263 34.622 15.231 14.783 27.454 27.518 36.669 38.397-7.295 13.567-15.679 26.366-25.022 38.205-13.695-4.096-30.398-10.111-50.044-18.175-8.191 8.959-17.343 17.023-27.070 24.318 5.824 20.415 9.983 37.629 12.607 51.708-12.927 7.999-26.622 14.975-40.701 20.671-1.472-1.664-3.328-3.776-4.928-5.504-8.703-9.663-18.303-20.99-29.374-35.197-3.712 1.088-7.679 1.472-11.455 2.368-7.999 1.984-15.871 4.096-24.062 5.12-5.248 20.543-10.175 37.565-14.975 50.94-13.823 0.448-27.838-0.128-41.853-2.048-1.472-0.128-2.624-0.32-3.84-0.512-3.136-13.823-6.464-31.23-9.215-52.348-11.135-2.496-21.822-6.208-32.062-10.495-0.896-0.32-1.728-0.384-2.496-0.768-14.783 15.295-27.518 27.518-38.397 36.669-8.127-4.224-15.231-9.791-22.782-14.847-5.056-3.52-10.623-6.272-15.423-10.111 4.096-13.695 10.111-30.27 18.175-49.98-8.447-7.999-16.255-16.703-23.23-25.918h-5.376c-18.367 5.12-34.366 9.023-47.293 11.391-2.24-3.584-3.712-7.679-5.76-11.391-5.376-9.599-10.815-19.199-14.911-29.374 5.248-4.928 11.199-10.175 17.983-15.871s14.335-11.775 22.718-18.239c-3.328-11.583-6.016-23.486-7.359-35.709-20.607-5.12-37.629-10.175-51.068-14.911-0.512-13.759 0.192-27.774 1.984-41.917 0.192-1.216 0.384-2.496 0.576-3.712 13.823-3.328 31.23-6.336 52.348-9.279 1.408-6.016 3.84-11.583 5.696-17.407 1.856-5.696 3.2-11.647 5.504-17.151-8.831-8.639-16.447-16.447-23.358-23.742-4.928-5.184-9.535-10.175-13.375-14.655 7.231-13.631 15.551-26.366 25.022-38.397 13.567 4.096 30.398 10.239 50.044 18.303 8.191-8.959 17.407-17.023 27.070-24.318-5.888-20.351-10.111-37.629-12.607-51.644 12.799-8.063 26.494-14.975 40.701-20.607 9.855 10.239 21.118 23.806 34.174 40.637 11.583-3.584 23.422-6.016 35.645-7.487 5.184-20.607 10.175-37.565 14.911-51.004 13.759-0.448 27.774 0.192 41.981 2.048 1.216 0.128 2.432 0.256 3.712 0.448 3.264 13.887 6.336 31.294 9.151 52.412 12.031 2.752 23.55 6.528 34.558 11.263 14.783-15.295 27.646-27.518 38.461-36.733 13.631 7.231 26.366 15.615 38.205 25.022-3.968 13.631-9.983 30.334-18.175 50.044 8.895 8.255 16.959 17.407 24.254 27.006 20.415-5.824 37.693-9.983 51.708-12.607 8.063 12.863 15.039 26.494 20.671 40.829-10.431 9.727-23.934 21.118-40.765 34.174 3.648 11.583 6.144 23.422 7.487 35.645zM758.702-19.582c-46.333-6.080-90.042 10.623-121.079 40.957-12.031 11.775-21.886 25.406-29.31 40.829-6.656 13.695-11.775 28.35-13.887 44.349-4.672 35.197 4.288 68.859 21.886 96.825 14.463 22.91 35.069 41.469 60.028 53.564 13.759 6.592 28.35 11.775 44.285 13.823 23.486 3.136 46.141-0.128 67.067-7.423 14.655-5.184 28.542-12.031 40.765-21.31 29.95-22.846 51.196-57.148 56.508-97.401 10.495-80.186-46.141-153.717-126.263-164.212zM376.394 128.055h-222.768c-49.468 0-89.594 40.125-89.594 89.594v524.762c0 49.468 40.125 89.594 89.594 89.594h524.762c49.468 0 89.594-40.125 89.594-89.594v-236.207c0-2.368 46.589-6.080 63.995-11.135l0 272.94c0 70.715-57.276 127.991-127.991 127.991h-575.959c-70.715 0-127.991-57.276-127.991-127.991v-575.959c0-70.715 57.276-127.991 127.991-127.991h258.094c-4.48 17.471-7.935 63.995-9.727 63.995zM329.549 500.764c0 0-221.616 11.967-221.488-243.375h44.029c0 0-14.015 182.643 177.523 199.282l-0.064 44.093zM329.613 704.398c0 0-117.496 0-117.496-117.432 0 0 0-109.496 117.496-117.432v39.997c0 0-68.411 5.824-74.427 77.434 0 0-3.136 74.555 74.427 80.57v36.861z"  horiz-adv-x="1024" />

    
    <glyph glyph-name="hetong" unicode="&#59071;" d="M895.353526 831.794699 127.982348 831.794699c-35.158754 0-63.947428-28.788673-63.947428-63.947428l0-767.372202c0-35.158754 28.788673-63.948451 63.947428-63.948451l767.371178 0c35.158754 0 63.947428 28.789697 63.947428 63.948451L959.300954 767.847272C959.300954 803.006026 930.512281 831.794699 895.353526 831.794699zM895.353526 0.47507 127.982348 0.47507 127.982348 767.847272l767.371178 0L895.353526 0.47507zM383.774105 639.95037l383.683543 0 0-63.947428-383.683543 0 0 63.947428ZM255.878227 639.95037l63.947428 0 0-63.947428-63.947428 0 0 63.947428ZM383.774105 512.054491l383.683543 0 0-63.946404-383.683543 0 0 63.946404ZM255.878227 512.054491l63.947428 0 0-63.946404-63.947428 0 0 63.946404ZM383.774105 320.215278l383.683543 0 0-63.949474-383.683543 0 0 63.949474ZM255.878227 320.215278l63.947428 0 0-63.949474-63.947428 0 0 63.949474ZM383.774105 192.317353l383.683543 0 0-63.945381-383.683543 0 0 63.945381ZM255.878227 192.317353l63.947428 0 0-63.945381-63.947428 0 0 63.945381Z"  horiz-adv-x="1024" />

    
    <glyph glyph-name="kaipiaoshenqing" unicode="&#58990;" d="M759 7l-26 26 65 78L603 111l0 39 195 0-65 65 26 39 104-117 0-13L759 7zM382 267l182 0 0-39L382 228 382 267zM668 345 382 345l0 39 286 0L668 345zM668 462 382 462l0 39 286 0L668 462zM278 501l52 0 0-39-52 0L278 501zM278 228l0 39 52 0 0-39L278 228zM278 384l52 0 0-39-52 0L278 384zM746 579 603 579 603 722 200 722l0-676 481 0 0-39L200 7c-21.5 0-39 17.5-39 39L161 722c0 21.5 17.5 39 39 39l442 0 143-156 0-312-39 0L746 579zM642 696l0-78 78 0L642 696z"  horiz-adv-x="1024" />

    
    <glyph glyph-name="yonghuguanli" unicode="&#59007;" d="M504.149333 384c125.667556 0 227.555556 114.631111 227.555556 256s-101.888 256-227.555556 256c-125.667556 0-227.555556-114.631111-227.555556-256S378.481778 384 504.149333 384zM504.149333 839.111111c94.264889 0 170.666667-89.144889 170.666667-199.111111 0-109.966222-76.401778-199.111111-170.666667-199.111111s-170.666667 89.144889-170.666667 199.111111C333.482667 749.966222 409.884444 839.111111 504.149333 839.111111zM512 304.412444c-251.335111 0-455.111111-127.374222-455.111111-284.444444 0-49.038222 19.854222-95.232 54.897778-135.509333L113.777778-115.541333l78.848 0 638.748444 0L910.222222-115.541333l1.991111 0C947.256889-75.264 967.111111-29.127111 967.111111 19.968 967.111111 177.038222 763.335111 304.412444 512 304.412444zM884.736-58.652444 139.264-58.652444C123.221333-34.133333 113.777778-7.793778 113.777778 19.968c0 125.667556 178.289778 227.555556 398.222222 227.555556s398.222222-101.888 398.222222-227.555556C910.222222-7.793778 900.778667-34.133333 884.736-58.652444z"  horiz-adv-x="1024" />

    
    <glyph glyph-name="denglu" unicode="&#58886;" d="M511.949858 412.398794c108.105137 0 195.798385 87.766926 195.798385 195.798385 0 108.080577-87.693248 195.798385-195.798385 195.798385-108.080577 0-195.798385-87.717807-195.798385-195.798385C316.151473 500.16572 403.869281 412.398794 511.949858 412.398794zM560.898687 314.500113c-195.798385 0-440.545598-65.347311-440.545598-195.798385l0-146.848533 783.191492 0L903.544581 118.701728C903.545604 249.152802 691.446975 314.500113 560.898687 314.500113z"  horiz-adv-x="1024" />

    
    <glyph glyph-name="search" unicode="&#58915;" d="M703.722 252.105c36.472 58.77 57.825 129.217 57.825 205.042 0 205.042-155.362 371.317-347.017 371.317-191.655 0-347.017-166.275-347.017-371.317 0-204.998 155.363-371.295 347.017-371.295 101.925 0 193.32 47.34 256.792 122.22l-3.442-4.838 247.657-263.7 40.905 43.808-252.72 268.762zM414.552 148.312c-159.705 0-289.17 138.24-289.17 308.835 0 170.617 129.465 308.858 289.17 308.858 159.683 0 289.192-138.24 289.192-308.857-0.023-170.595-129.51-308.835-289.192-308.835z"  horiz-adv-x="1024" />

    
    <glyph glyph-name="shouye" unicode="&#58947;" d="M762.503311 754.886075c-14.285355 9.653871-33.714869 5.90243-43.363623-8.393157-9.658987-14.295588-5.907547-33.709753 8.388041-43.367717 106.359376-71.861678 169.863712-191.280488 169.863712-319.443449 0-212.412784-172.811858-385.220548-385.220548-385.220548S126.956484 171.267944 126.956484 383.681752c0 128.168078 63.49922 247.586888 169.858596 319.443449 14.295588 9.658987 18.057261 29.073152 8.398274 43.363623-9.648754 14.295588-29.073152 18.052145-43.363623 8.398274C138.267087 671.397592 64.488757 532.626016 64.488757 383.681752c0-246.854201 200.827935-447.687252 447.682136-447.687252S959.859167 136.826528 959.859167 383.681752C959.859167 532.626016 886.075721 671.392476 762.503311 754.886075zM400.698055 831.363887c-17.248849 0-31.233352-13.984503-31.233352-31.233352l0-30.470989c0-17.248849 13.985526-31.233352 31.233352-31.233352 17.248849 0 31.233352 13.985526 31.233352 31.233352L431.931407 800.130535C431.931407 817.378361 417.946904 831.363887 400.698055 831.363887zM623.649869 831.363887c-17.248849 0-31.233352-13.984503-31.233352-31.233352l0-30.470989c0-17.248849 13.985526-31.233352 31.233352-31.233352 17.248849 0 31.233352 13.985526 31.233352 31.233352L654.883221 800.130535C654.883221 817.378361 640.897695 831.363887 623.649869 831.363887zM425.695379 668.343023c11.209296-18.047028 41.974997-48.588625 86.157265-48.588625 43.958164 0 75.100442 30.3134 86.573751 48.223305 9.302877 14.528901 5.068436 33.846876-9.455349 43.149752-14.544251 9.29776-33.846876 5.063319-43.149752-9.455349-0.121773-0.198521-13.379729-19.449981-33.968649-19.449981-20.008706 0-32.443923 18.127869-33.276894 19.373233-9.165754 14.427594-28.285207 18.799158-42.829458 9.760295C421.089477 702.250274 416.59 682.993698 425.695379 668.343023zM356.00311 304.94141c-17.248849 0-31.233352-13.984503-31.233352-31.233352s13.984503-31.233352 31.233352-31.233352L480.93754 242.474706l0-98.250698c0-17.248849 13.984503-31.238468 31.233352-31.238468 17.248849 0 31.233352 13.989619 31.233352 31.238468l0 98.250698 124.93443 0c17.248849 0 31.238468 13.984503 31.238468 31.233352s-13.989619 31.233352-31.238468 31.233352L543.405267 304.94141l0 83.289961 124.93443 0c17.248849 0 31.238468 13.985526 31.238468 31.233352 0 17.248849-13.989619 31.233352-31.238468 31.233352l-80.761372 0 68.041676 68.038606c12.20088 12.20088 12.20088 31.976272 0.005117 44.171012-12.195763 12.20088-31.976272 12.195763-44.171012 0.005117l-99.280144-99.276051-99.280144 99.276051c-12.190647 12.190647-31.971156 12.195763-44.171012-0.005117-12.195763-12.195763-12.195763-31.971156 0.005117-44.171012l68.041676-68.038606-80.766488 0c-17.248849 0-31.233352-13.984503-31.233352-31.233352 0-17.248849 13.984503-31.233352 31.233352-31.233352L480.93754 388.231371l0-83.289961L356.00311 304.94141z"  horiz-adv-x="1024" />

    
    <glyph glyph-name="ai-safe" unicode="&#58981;" d="M944.103 815.287l-432.2 80.713-423.917-80.713-37.781-5.653v-521.812c0-31.293 7.971-62.415 24.005-93.353 15.946-31.032 36.816-60.992 62.621-90.11 25.801-29.070 55.156-56.625 88.007-82.578 32.899-26.002 66.348-49.153 100.451-69.455 34.094-20.342 66.948-37.26 98.603-50.704 31.654-13.446 59.439-22.66 83.401-27.69l10.133-1.874 11.063 1.874c23.358 5.031 50.544 14.244 81.554 27.69 31.013 13.444 62.941 30.361 95.84 50.704 32.858 20.301 65.247 43.454 97.227 69.455 31.927 25.948 60.359 53.508 85.24 82.578 24.882 29.117 44.975 59.077 60.363 90.11 15.342 30.938 23.040 62.060 23.040 93.353v521.813l-27.649 5.652zM878.857 277.541c0-24.081-5.713-47.855-17.232-71.231-11.476-23.417-26.819-45.94-46.076-67.581-19.305-21.682-41.378-42.024-66.395-60.944-25.024-18.921-51.008-36.105-78.058-51.6-26.998-15.49-54.367-28.893-82.064-40.247-27.737-11.348-53.401-19.763-76.998-25.285v468.612l-368.94-0v329.214l363.831 62.997 5.113-1.019v-391.189h366.818l0.002-151.727z"  horiz-adv-x="1024" />

    
    <glyph glyph-name="liucheng" unicode="&#58968;" d="M678.58432 741.496832l-26.206208-61.739008 172.038144 54.5792L744.169472 896l-27.297792-64.3072C548.585472 904.859648 346.908672 880.545792 199.632896 752.519168l64.331776-73.877504C382.12608 781.357056 543.463424 800.663552 678.58432 741.496832zM345.442304 26.503168l26.206208 61.73696-172.038144-54.575104L279.855104-128l27.297792 64.3072c168.28416-73.168896 369.96096-48.852992 517.240832 79.171584l-64.335872 73.877504C641.900544-13.357056 480.5632-32.663552 345.442304 26.503168zM154.515456 551.473152l61.739008-26.206208-54.5792 172.038144L0.012288 617.058304l64.305152-27.297792C-8.84736 421.476352 15.464448 219.799552 143.491072 72.51968l73.877504 64.333824C114.655232 255.014912 95.348736 416.352256 154.515456 551.473152zM959.705088 180.041728c73.166848 168.286208 48.852992 369.963008-79.171584 517.240832l-73.877504-64.333824c102.715392-118.15936 122.01984-279.496704 62.851072-414.6176l-61.73696 26.206208 54.577152-172.038144 161.662976 80.248832L959.705088 180.041728z"  horiz-adv-x="1025" />

    
    <glyph glyph-name="icon_edit" unicode="&#58896;" d="M769.472-64h-577.248c-53.056 0-96.224 43.168-96.224 96.224v641.408c0 53.056 43.168 96.224 96.224 96.224h448.992c17.728 0 32.064-14.368 32.064-32.064s-14.336-32.064-32.064-32.064h-448.992c-17.664 0-32.064-14.4-32.064-32.064v-641.408c0-17.696 14.4-32.064 32.064-32.064h577.28c17.696 0 32.064 14.368 32.064 32.064l0 513.088c0 17.696 14.336 32.064 32.064 32.064s32.064-14.368 32.064-32.064v-513.12c0-53.056-43.168-96.224-96.224-96.224v0zM581.056 449.12c-8.224 0-16.416 3.136-22.656 9.408-12.544 12.544-12.544 32.8 0 45.344l318.72 318.72c12.544 12.544 32.8 12.544 45.344 0 12.544-12.544 12.544-32.8 0-45.344l-318.72-318.72c-6.24-6.272-14.464-9.408-22.688-9.408v0zM448.768 449.12h-192.416c-17.696 0-32.064 14.368-32.064 32.064s14.368 32.064 32.064 32.064h192.416c17.696 0 32.064-14.368 32.064-32.064s-14.368-32.064-32.064-32.064v0zM641.216 256.704h-384.864c-17.696 0-32.064 14.336-32.064 32.064s14.368 32.064 32.064 32.064h384.832c17.728 0 32.064-14.336 32.064-32.064 0.032-17.728-14.304-32.064-32.032-32.064v0zM641.216 256.704z"  horiz-adv-x="1024" />

    
    <glyph glyph-name="zonghechaxun" unicode="&#59050;" d="M908-60l-320 0c-22.4 0-40 17.6-40 40l0 320c0 22.4 17.6 40 40 40l320 0c22.4 0 40-17.6 40-40l0-320C948-42.4 930.4-60 908-60zM877.6 451.2 780.8 548.8c-23.2-15.2-50.4-24.8-80.8-24.8-79.2 0-144 64.8-144 144s64.8 144 144 144 144-64.8 144-144c0-23.2-5.6-45.6-16-65.6l100.8-100.8c14.4-14.4 14.4-36.8 0-51.2C914.4 436.8 892 436.8 877.6 451.2zM700 740c-40 0-72-32-72-72s32-72 72-72 72 32 72 72S740 740 700 740zM428-60l-320 0c-22.4 0-40 17.6-40 40l0 320c0 22.4 17.6 40 40 40l320 0c22.4 0 40-17.6 40-40l0-320C468-42.4 450.4-60 428-60zM428 420l-320 0c-22.4 0-40 17.6-40 40l0 320c0 22.4 17.6 40 40 40l320 0c22.4 0 40-17.6 40-40l0-320C468 437.6 450.4 420 428 420z"  horiz-adv-x="1024" />

    
    <glyph glyph-name="zonglan01" unicode="&#59191;" d="M475.428571 420.571429 0 420.571429 0 896l475.428571 0L475.428571 420.571429zM394.971429 815.542857 80.457143 815.542857l0-314.514286 314.514286 0L394.971429 815.542857zM1024 420.571429 548.571429 420.571429 548.571429 896 1024 896 1024 420.571429zM943.542857 815.542857 629.028571 815.542857l0-314.514286 314.514286 0L943.542857 815.542857zM475.428571-128 0-128 0 347.428571l475.428571 0L475.428571-128zM394.971429 266.971429 80.457143 266.971429l0-314.514286 314.514286 0L394.971429 266.971429zM1024-128 548.571429-128 548.571429 347.428571 1024 347.428571 1024-128zM943.542857 266.971429 629.028571 266.971429l0-314.514286 314.514286 0L943.542857 266.971429z"  horiz-adv-x="1024" />

    
    <glyph glyph-name="yusuandanwei" unicode="&#58983;" d="M717.498816 433.586348 604.07658 433.586348l-32.460296 0L281.719778 433.586348c-27.235294 0-55.220672-29.03836-55.220672-55.406914l0-191.211926c0-26.426883 27.985378-59.196217 55.220672-59.196217l289.896506 0 32.460296 0 113.422236 0c27.234271 0 59.132772 32.768311 59.132772 59.196217L776.631588 378.180458C776.631588 404.547988 744.733087 433.586348 717.498816 433.586348zM571.616284 159.295262 306.342572 159.295262c-27.235294 0-49.251727 25.186635-49.251727 51.550073L257.090844 354.301608c0 26.368554 22.016433 47.756677 49.251727 47.756677l265.273712 0L571.616284 159.295262zM746.101247 210.845335c0-26.363438-25.990954-51.550073-53.231365-51.550073l-88.793302 0L604.07658 402.058284l88.793302 0c27.239388 0 53.231365-21.389146 53.231365-47.756677L746.101247 210.845335zM513.910001 895.169075c-281.314037 0-509.401826-228.087788-509.401826-509.402849 0-281.314037 228.087788-509.402849 509.401826-509.402849 281.316084 0 509.403872 228.088812 509.403872 509.402849C1023.31285 667.081287 795.226085 895.169075 513.910001 895.169075zM871.276155 493.840664l0-141.030014c-28.109198-6.591115-55.157227-35.568077-55.157227-70.266343 0-34.636868 27.049053-63.552431 55.157227-70.203922l0-144.886855L397.130298 67.453531l-0.063445 0-0.063445 0L131.858632 67.453531 131.858632 212.340385c28.107151 6.65149 49.245587 35.568077 49.245587 70.203922 0 34.698267-21.138436 63.675228-49.245587 70.266343L131.858632 493.840664l676.364465 0 0 31.529087-53.16792 0c2.361791 13.865799-1.803066 28.667923-12.870122 39.361473L610.727047 688.288285c-18.21792 17.59575-47.62774 17.59575-65.723887 0l-94.209662-91.223654-4.414543-4.287653-73.497944-67.346851-98.625228 0L594.248747 831.558315l99.615788-96.444563c-14.173814-22.638603-8.390088-55.594179 15.424294-78.663594 23.877827-23.069415 57.82908-28.6669 81.210603-14.987343l105.46296-96.444563L847.084173 493.840664 871.276155 493.840664zM519.879969 525.429103 405.712767 525.429103l57.08309 55.220672L519.879969 525.429103zM479.210711 592.775954l65.792449 63.674205c18.096147 17.600867 47.505967 17.600867 65.723887 0l98.561783-91.718935c11.06501-10.69355 15.296381-25.495674 12.93459-39.302121L552.712749 525.429103 479.210711 592.775954z"  horiz-adv-x="1024" />

    
    <glyph glyph-name="shoukuan" unicode="&#58914;" d="M343.347882 1.522935l-97.882308 0c-33.94102 0-75.265194 31.506575-75.265194 57.190537L170.20038 714.854337c0 29.218462 23.294542 52.132334 53.570079 52.132334l498.986615 0c11.462053 0 31.751145-0.027629 31.751145-52.132334L754.508219 220.174817c0-18.122753 15.291265-32.807197 33.257451-32.807197 17.966187 0 33.257451 14.684444 33.257451 32.807197L821.023122 714.854337c0 73.708745-36.9741 117.124558-98.266048 117.124558L223.77046 831.978894c-66.75845 0-118.03837-51.115168-118.03837-117.124558l0-656.141888c0-68.060095 75.982532-122.18276 139.733485-122.18276l97.882308 0c17.966187 0 32.54216 14.373359 32.54216 32.496112C375.890043-12.850423 361.314069 1.522935 343.347882 1.522935zM610.413404 672.197818c-8.475022 8.475022-22.203698 8.475022-30.677697 0L463.378629 555.841763 347.021551 672.197818c-8.475022 8.475022-22.203698 8.475022-30.677697 0s-8.475022-22.203698 0-30.677697l98.168834-98.168834-81.304747 0c-11.992125 0-21.695115-9.508561-21.695115-21.48943s9.702989-21.48943 21.695115-21.48943l109.286032 0 0-64.46829L333.207941 435.904137c-11.992125 0-21.695115-9.508561-21.695115-21.48943s9.702989-21.48943 21.695115-21.48943l109.286032 0 0-65.538669c0-11.980869 9.497305-21.695115 21.48943-21.695115s21.48943 9.714246 21.48943 21.695115l0 65.538669 108.076484 0c11.991102 0 21.695115 9.508561 21.695115 21.48943s-9.702989 21.48943-21.695115 21.48943L485.472833 435.904137l0 64.46829 108.076484 0c11.991102 0 21.695115 9.508561 21.695115 21.48943s-9.702989 21.48943-21.695115 21.48943l-81.304747 0 98.168834 98.168834C618.887402 649.99412 618.887402 663.723819 610.413404 672.197818zM885.724727 128.912277 466.603067 128.912277l55.487755 55.481615c12.71151 12.701277 12.71151 33.305547 0 46.017056s-33.305547 12.71151-46.017056 0L370.031615 124.379031c-9.484002-5.594415-15.835663-15.835663-15.835663-27.700899 0-11.208273 5.66707-20.968567 14.288424-26.730805l106.566084-106.555851c6.355755-6.355755 14.682397-9.534144 23.00904-9.534144s16.652262 3.178389 23.00904 9.534144c12.71151 12.71151 12.71151 33.31578 0 46.017056l-55.041594 55.036477 419.698804 0c17.966187 0 32.54216 14.257725 32.54216 32.234145S903.690914 128.912277 885.724727 128.912277z"  horiz-adv-x="1024" />

    
    <glyph glyph-name="jingying" unicode="&#58924;" d="M843.472593 458.808889l0.474074 0.18963L755.01037 652.325926l-0.379259-0.18963c-8.438519 15.834074-24.936296 26.074074-43.045926 26.074074L536.557037 678.21037l-48.924444 0L312.604444 678.21037c-18.10963 0-34.607407-10.145185-43.045926-26.074074l-89.315556-193.042963 0.284444-0.094815c-11.093333-26.737778-10.808889-49.208889 0.758519-66.844444 14.791111-22.471111 44.373333-31.668148 73.955556-35.271111l0-214.755556c0-28.728889 23.419259-52.148148 52.148148-52.148148l422.115556 0c28.728889 0 52.148148 23.419259 52.148148 52.148148L781.653333 356.693333c29.677037 3.697778 46.08 12.8 60.871111 35.365926C854.281481 409.694815 854.565926 432.165926 843.472593 458.808889L843.472593 458.808889zM808.865185 419.460741c-11.093333-16.877037-30.056296-25.6-80.402963-26.074074-26.548148 0.284444-87.608889 13.842963-88.462222 71.964444 0 0.284444 0 0.853333 0 0.853333l-19.531852 0-19.531852 0c0-0.284444 0-0.568889 0-0.853333-0.758519-58.216296-62.103704-71.68-88.557037-71.964444-26.642963 0.284444-88.557037 13.842963-88.651852 72.817778l-39.727407 0c-0.094815-58.88-61.819259-72.533333-88.462222-72.817778-50.441481 0.474074-68.361481 9.197037-79.454815 26.074074-6.731852 10.145185-6.162963 11.377778 1.611852 29.866667l-0.284444 0.094815 74.145185 176.165926c3.792593 8.248889 12.041481 13.558519 21.143704 13.558519l175.028148 0 48.924444 0 162.702222 0c9.102222 0 17.351111-5.30963 21.143704-13.558519l0.18963 0.094815 87.134815-162.891852-0.379259-0.18963C815.028148 444.112593 815.597037 429.605926 808.865185 419.460741L808.865185 419.460741zM742.779259 155.306667c0-14.601481-11.851852-26.453333-26.453333-26.453333L320.758519 128.853333c-14.601481 0-26.453333 11.851852-26.453333 26.453333L294.305185 354.702222c4.93037-0.18963-3.413333-0.284444 1.137778-0.379259l0 0 0.094815 0c0 0 0.094815 0 0.18963 0l0 0c36.219259 0.379259 85.522963 15.265185 108.278519 52.527407 22.755556-37.262222 72.248889-52.148148 108.468148-52.527407l0 19.152593 0-19.152593c36.02963 0.284444 85.048889 15.075556 107.994074 51.863704 22.945185-36.693333 71.774815-51.484444 107.804444-51.863704l0 0c0.094815 0 0.094815 0 0.18963 0 0 0 0 0 0.094815 0l0 0c4.551111 0 9.386667 0.094815 14.222222 0.284444L742.779259 155.306667 742.779259 155.306667 742.779259 155.306667z"  horiz-adv-x="1024" />

    
    <glyph glyph-name="yongyin" unicode="&#58928;" d="M333.273944 449.605184c4.428869-5.581112 9.111518-10.999518 13.640672-16.239869 3.823072-4.422729 7.777127-8.996908 11.479449-13.5629 12.010545-14.807241 11.893888-24.598234-0.461511-38.800701-2.981914-3.423983-6.242168-6.636141-9.69378-10.037611-3.236718-3.189645-6.582929-6.487761-9.738805-10.028401-1.216711-1.367137-2.454912-2.727111-3.694135-4.090155-5.880941-6.464225-11.960403-13.150508-16.547885-21.042245-13.500479-23.223934-13.636578-47.783283-0.394996-71.02359 12.399401-21.757536 33.060977-33.257451 59.748802-33.257451l0.030699 0c20.798698 0.005117 41.594327 0.00921 62.385862 0.00921l86.011956-0.004093 7.980765 0.033769c9.154497-0.002047 18.312064-0.007163 27.467585-0.011256 11.82328-0.007163 23.645536-0.013303 35.471886-0.013303 31.674397 0 55.856146 0.047072 78.408791 0.150426 7.679913 0.034792 15.258519 1.144056 21.917172 3.206018 20.776186 6.432503 36.615942 22.11774 43.456744 43.034119 7.088442 21.671579 3.051499 45.749974-10.794857 64.410985-6.64535 8.958022-14.503319 16.870226-22.102391 24.52251-3.045359 3.066849-6.194072 6.238075-9.166777 9.382695-17.793248 18.831904-17.99177 28.244274-1.007957 47.954175 11.084453 12.863982 21.849634 25.541723 31.707143 39.198767 42.120306 58.322313 56.741305 121.783671 43.459814 188.623985-9.613962 48.368614-28.819372 89.367377-57.085136 121.858372-28.661783 32.946366-66.74924 57.269331-113.205295 72.294536-27.638477 8.940626-55.028291 13.473873-81.410148 13.473873-61.400419 0-118.054743-24.031323-168.390151-71.426773-57.364499-54.010101-82.966597-123.172297-76.094072-205.565842C280.529673 536.264892 299.050492 492.74368 333.273944 449.605184zM389.48927 749.194446c20.268626 19.081591 41.763173 33.542954 63.885006 42.982954 21.573341 9.205663 44.37158 13.872962 67.76436 13.872962 20.764929 0 42.606377-3.65832 64.916499-10.873652 37.053917-11.987009 67.083861-30.988782 89.25686-56.478316 22.057365-25.348318 37.181831-58.025555 44.955888-97.123015 5.188162-26.13217 4.883217-51.743478-0.906649-76.123748-5.709025-24.072255-16.95823-47.848775-33.435507-70.670549-8.655124-11.989055-18.590404-23.676236-28.861328-35.591613-34.968419-40.582277-34.075073-80.872912 2.651386-119.748315 3.367701-3.569292 6.699586-6.92676 9.920954-10.171664l0.206708-0.207731c6.526647-6.570649 12.691043-12.774955 17.062608-18.665105 5.050016-6.801916 3.704368-13.323447 2.892887-15.807011-0.980327-2.995217-3.225461-6.900154-8.338922-8.484232-1.656733-0.508583-3.961218-0.803295-6.336312-0.810459-29.454846-0.137123-58.715263-0.152473-78.162174-0.152473l-35.438117 0.011256c-11.83249 0.00921-23.657816 0.00921-35.494399 0.00921l-35.423791-0.028653-50.575886 0c-20.803815 0-41.60149 0-62.416562-0.011256-9.647731 0-11.285021 2.871397-13.178137 6.192026-3.759627 6.604418-3.719718 10.869558 0.164752 17.553795 1.734504 2.981914 5.856381 7.513114 9.848299 11.902074l0.212848 0.234337c1.290389 1.421372 2.580778 2.842745 3.875261 4.288676 2.013867 2.26867 4.713348 4.925173 7.326872 7.495718 3.628644 3.572362 8.144494 8.019651 12.502755 13.029758 29.294187 33.660634 29.896914 72.933079 1.658779 107.744933-4.146437 5.119601-8.299013 9.92607-12.31549 14.57495l-0.237407 0.274246c-4.142343 4.786003-8.42488 9.734712-12.205996 14.505365-27.448142 34.595936-42.231847 68.679196-45.196365 104.198154-2.710738 32.525788 0.811482 62.534242 10.468422 89.192392C350.318132 703.303256 366.789269 727.825766 389.48927 749.194446zM929.240311 133.715677c-0.056282 20.387329-6.808056 37.881772-19.529799 50.592258-12.731976 12.722766-30.238698 19.447934-50.623981 19.447934-222.332714 0.055259-444.669522 0.074701-667.036006 0.020466-39.441291 0-68.210521-28.517497-68.405973-67.812455-0.102331-21.918195-0.063445-44.181245-0.025583-65.711608l0.010233-5.835915c0.004093-2.595105 0.167822-5.148253 0.325411-7.618515 0.075725-1.177825 0.153496-2.381234 0.214894-3.621481l0.387833-7.779174 804.703435 0 0 8.18645c0 8.136308 0.005117 16.211217 0.011256 24.241101C929.284313 97.02401 929.29557 115.158019 929.240311 133.715677zM177.247378 135.702937c0.048095 9.602705 5.030573 14.471596 14.811334 14.471596 91.015923 0.021489 182.066639 0.021489 273.078469 0.021489 127.533628 0 260.075317-0.010233 393.937071-0.039909 3.353374 0 9.470699-0.48914 12.742209-3.753487 3.303232-3.306302 3.811816-9.466606 3.821025-12.842493 0.031722-11.550057 0.040932-22.948665 0.040932-34.559097L177.17984 99.001037C177.1737 113.346767 177.19519 124.907057 177.247378 135.702937zM166.193625 5.5169l720.512964 0 0-54.082756-720.512964 0 0 54.082756Z"  horiz-adv-x="1024" />

    
    <glyph glyph-name="icon_add" unicode="&#58922;" d="M416 480h-351.936c-35.616 0-64.064-28.64-64.064-63.936v-64.128c0-35.2 28.672-63.936 64.064-63.936h351.936v-351.936c0-35.616 28.64-64.064 63.936-64.064h64.128c35.2 0 63.936 28.672 63.936 64.064v351.936h351.936c35.616 0 64.064 28.64 64.064 63.936v64.128c0 35.2-28.672 63.936-64.064 63.936h-351.936v351.936c0 35.616-28.64 64.064-63.936 64.064h-64.128c-35.2 0-63.936-28.672-63.936-64.064v-351.936z"  horiz-adv-x="1024" />

    
    <glyph glyph-name="xingxing-copy" unicode="&#58957;" d="M318.755 258.756l-204.054 208.329 276.008 35.9 119.849 255.397 118.732-255.397 275.147-39.026-202.109-206.224 42.279-268.16-234.049 133.92-237.048-132.899 45.245 268.16zM510.557 896l-158.33-336.954-352.206-53.732 254.821-260.887-60.338-369.499 316.053 174.539 316.053-174.539-60.338 369.499 254.821 260.887-352.206 53.732-158.33 336.954z"  horiz-adv-x="1024" />

    
    <glyph glyph-name="chaxun" unicode="&#58907;" d="M229.83609 718.808188l461.985567 0 0-57.748052-461.985567 0 0 57.748052ZM228.296527 602.744999l461.985567 0 0-57.748052-461.985567 0 0 57.748052ZM114.341142 835.245585l692.976619 0 0-461.984413 57.748052 0 0 461.984413c0 31.893094-25.854958 57.748052-57.748052 57.748052l-692.976619 0c-31.893094 0-57.748052-25.854958-57.748052-57.748052l0-808.472722c0-31.893094 25.854958-57.748052 57.748052-57.748052l404.236361 0 0 57.748052-404.236361 0L114.341142 835.245585zM229.451488 371.758568l0-57.748052 140.452501 0c0 20.068603 2.939376 39.447694 8.386172 57.748052L229.451488 371.758568zM465.562482 487.254671 228.296527 487.254671l0-57.748052 175.543682 0C420.103216 452.819508 441.148916 472.545087 465.562482 487.254671zM902.807629 22.477563 770.391347 153.321943c30.443618 35.382231 48.851387 81.416668 48.851387 131.75449 0 111.626984-90.492352 202.11818-202.117026 202.11818-111.625829 0-202.11818-90.491197-202.11818-202.11818 0-111.624674 90.492352-202.11818 202.11818-202.11818 40.412086 0 78.049957 11.867225 109.631211 32.298485l135.217063-133.613977c11.275885-11.275885 29.557763-11.275885 40.833647 0C914.082359-7.0802 914.082359 11.200523 902.807629 22.477563zM472.754424 285.076433c0 79.73389 64.638549 144.370129 144.371284 144.370129 79.73158 0 144.368974-64.636239 144.368974-144.370129 0-79.73158-64.637394-144.370129-144.368974-144.370129C537.392973 140.706304 472.754424 205.344853 472.754424 285.076433z"  horiz-adv-x="1045" />

    
    <glyph glyph-name="kaibiao" unicode="&#58932;" d="M258.698 702.955l511.997 0 0-63.999L258.698 638.956 258.698 702.955zM256.991 574.332l511.996 0 0-63.999L256.991 510.333 256.991 574.332zM256.991 446.34l131.311 0 0-64L256.991 382.34 256.991 446.34zM256.991 318.338l57.948 0 0-64-57.948 0L256.991 318.338zM898.695 896 130.701 896C95.356 896 66.702 867.346 66.702 832l0-895.992c0-35.345 28.654-63.999 63.999-63.999l299.4 0.328 0 63.999-299.4-0.328 0 895.992 767.995 0 0-386.556 63.999 0L962.695 832C962.693 867.346 934.035 896 898.695 896L898.695 896zM720.25 369.69l146.029-92.904L720.25 183.885l-146.027 92.902L720.25 369.69M720.25 431.02 477.808 276.786 720.25 122.553l242.444 154.233L720.25 431.02 720.25 431.02zM962.694 216.032 720.25 61.8 477.808 216.032l0-63.133L720.25-1.334l242.444 154.233 0 38.423L962.694 216.032zM962.694 89.369 720.25-64.865 477.808 89.369l0-63.134 242.442-154.233 242.444 154.233L962.694 89.369 962.694 89.369z"  horiz-adv-x="1024" />

    
    <glyph glyph-name="toubiao1" unicode="&#58941;" d="M682.81 735.657l-243.213-140.423c-19.197-11.047-43.721-4.466-54.731 14.731-11.125 19.156-4.544 43.701 14.613 54.729l243.212 140.405c19.217 11.067 43.724 4.485 54.81-14.631 11.107-19.177 4.487-43.7-14.691-54.807zM459.657 560.522l243.173 140.386 140.412-243.182-243.195-140.405-140.391 243.202zM903.457 353.519l-243.194-140.405c-19.175-11.050-43.721-4.506-54.749 14.651-11.087 19.197-4.507 43.758 14.633 54.767l243.193 140.405c19.216 11.087 43.723 4.505 54.809-14.652 11.107-19.156 4.486-43.721-14.691-54.766zM65.454 240.301l444.329 233.37 40.118-69.497-424.271-268.079c-28.755-16.611-65.583-6.818-82.193 22.016-16.61 28.833-6.737 65.579 22.017 82.19zM505.886 37.762c0 22.174 17.984 40.117 40.118 40.117h361.058c22.193 0 40.117-17.942 40.117-40.117 0-22.172 0-40.115 0-40.115l41.45 0.861-1.331-40.978h-521.529l-1.881 38.433 39.471 1.684c0.001 0 2.527 17.941 2.527 40.115z"  horiz-adv-x="1024" />

    
    <glyph glyph-name="qingjia" unicode="&#58919;" d="M121.009935 684.162222l168.945174-0.396244v-48.856736c0-15.452477 12.504711-27.957189 27.957189-27.957189s27.957189 12.504711 27.957189 27.957189v48.725679l214.675988-0.502728v-48.222951c0-15.452477 12.503688-27.957189 27.957189-27.957189 15.452477 0 27.957189 12.504711 27.957188 27.957189v48.091894l145.301615-0.340954v-243.807573h55.914377V682.660182c0 31.670821-25.745596 57.416417-57.416417 57.416417H616.459852V794.626138c0 15.439167-12.504711 27.957189-27.957188 27.957189-15.453501 0-27.957189-12.518022-27.957189-27.957189v-54.549539H345.869487V794.626138c0 15.439167-12.504711 27.957189-27.957189 27.957189s-27.957189-12.518022-27.957189-27.957189v-54.549539H121.009935c-31.670821 0-57.416417-25.745596-57.416417-57.416417v-539.760603c0-31.669797 25.745596-57.443038 57.416417-57.443038h338.190347v55.914377l-339.692387 1.528661 1.50204 541.262643zM256.158702 484.965332m-43.208984 0a43.208985 43.208985 0 1 1 86.417969 0 43.208985 43.208985 0 1 1-86.417969 0ZM446.91161 484.965332m-43.208985 0a43.208985 43.208985 0 1 1 86.417969 0 43.208985 43.208985 0 1 1-86.417969 0ZM632.07308 484.965332m-43.208985 0a43.208985 43.208985 0 1 1 86.417969 0 43.208985 43.208985 0 1 1-86.417969 0ZM256.158702 316.314013m-43.208984 0a43.208985 43.208985 0 1 1 86.417969 0 43.208985 43.208985 0 1 1-86.417969 0ZM446.91161 316.314013m-43.208985 0a43.208985 43.208985 0 1 1 86.417969 0 43.208985 43.208985 0 1 1-86.417969 0ZM739.83701 378.51607c-119.474107 0-216.668469-97.195386-216.668469-216.668469s97.195386-216.668469 216.668469-216.668469S956.506503 42.373494 956.506503 161.847601s-97.195386 216.668469-216.669493 216.668469z m0-377.42256c-88.650039 0-160.754092 72.105076-160.754091 160.754091s72.105076 160.754092 160.754091 160.754092S900.592126 250.496616 900.592126 161.847601s-72.105076-160.754092-160.755116-160.754091zM821.60654 189.80479H767.794199v63.722527c0 15.452477-12.504711 27.957189-27.957189 27.957189s-27.957189-12.504711-27.957189-27.957189v-91.68074c0-15.452477 12.504711-27.957189 27.957189-27.957189 0.21092 0 0.418769 0.011263 0.627642 0.016383 0.209896-0.004096 0.417745-0.016382 0.627642-0.016383h80.513222c15.453501 0 27.957189 12.504711 27.957189 27.957189 0.002048 15.453501-12.502664 27.958213-27.956165 27.958213z"  horiz-adv-x="1024" />

    
    <glyph glyph-name="shengchanrenwudanguanli" unicode="&#58897;" d="M954.11712-9.24672c0-27.51488-21.62176-49.13664-49.13664-49.13664h-98.2784V-107.52h98.2784c54.04672 0 98.27328 44.23168 98.27328 98.27328V89.0368h-49.14176v-98.28352zM904.98048 875.25376h-98.2784v-49.13664h98.2784c27.51488 0 49.13664-21.62176 49.13664-49.14176v-98.27328h49.14176V776.97536c-0.00512 54.05696-44.23168 98.2784-98.2784 98.2784zM69.61664-9.24672V89.0368H20.48v-98.2784C20.48-63.28832 64.70144-107.52 118.7584-107.52H217.0368v49.14176H118.7584c-27.52 0-49.14176 21.61664-49.14176 49.13152zM69.61664 776.97536c0 27.52 21.62176 49.14176 49.14176 49.14176H217.0368V875.25376H118.7584C64.70144 875.25376 20.48 831.03232 20.48 776.97536v-98.2784h49.13664V776.97536zM188.37504 482.14528h646.97856v-49.14176H188.37504v49.14176zM188.37504 639.3856h372.62848v-49.13152H188.37504V639.3856zM188.37504 334.73024h646.97856v-49.14176H188.37504v49.14176zM188.37504 177.4848h646.97856v-49.14176H188.37504v49.14176z"  horiz-adv-x="1024" />

    
    <glyph glyph-name="peixun" unicode="&#58888;" d="M315.904 555.52c20.992-63.488 79.36-63.488 99.84 0 6.656 3.584 13.824 14.336 14.848 23.04 1.024 9.216 0.512 21.504-8.704 21.504-2.048 29.696-18.432 54.784-55.296 54.784-36.352 0-54.784-22.016-56.832-54.784-9.216 0-10.24-12.288-8.704-21.504 1.024-8.704 8.192-19.456 14.848-23.04zM450.56 212.992c24.064 0 44.032 19.968 44.032 44.032v1.536L665.6 429.568c4.608 4.608 4.608 12.288 0 16.896-4.608 4.608-12.288 4.608-16.896 0l-154.624-154.112V437.76c0 31.744-23.04 58.88-55.296 66.048l-23.552 5.12c-20.48-40.448-78.336-40.448-98.304 0l-23.552-5.12c-32.256-6.656-55.296-34.304-55.296-66.048v-180.736c0-24.064 19.456-44.032 44.032-44.032 0-12.288 9.728-22.016 22.016-22.016h124.416c12.288 0 22.016 10.24 22.016 22.016zM171.52 231.424c18.944-8.192 40.448 5.12 40.448 26.112 0 9.216-5.632 16.896-14.336 19.968-27.136 9.728-47.104 35.328-47.104 66.048V675.84c0 38.912 31.232 70.144 70.144 70.144h583.68c38.912 0 70.144-31.232 70.144-70.144v-332.288c0-38.912-31.232-70.144-70.144-70.144h-232.448c-14.336 0-26.112-11.776-26.112-26.112s11.776-26.112 26.112-26.112h232.96c67.584 0 122.368 54.784 122.368 122.368V675.84c0 67.584-54.784 122.368-122.368 122.368h-583.68C153.6 798.208 98.816 743.424 98.816 675.84v-332.288c-0.512-50.176 29.696-93.184 72.704-112.128zM269.824 148.48H178.176c-44.032 0-79.872-35.84-79.872-79.872v-105.472h251.392v105.472c0 44.032-35.84 79.872-79.872 79.872zM559.616 148.48H468.48c-44.032 0-79.872-35.84-79.872-79.872v-105.472H640v105.472c-0.512 44.032-36.352 79.872-80.384 79.872zM849.408 148.48h-91.136c-44.032 0-79.872-35.84-79.872-79.872v-105.472h251.392v105.472c0 44.032-35.84 79.872-80.384 79.872z"  horiz-adv-x="1024" />

    
    <glyph glyph-name="reminders" unicode="&#58882;" d="M511.967-127.989c-56 0-110.4 11.2-161.5 33.3-49.5 21.3-93.8 51.8-131.8 90.6-38 38.8-67.8 83.8-88.7 134.1-21.5 52-32.5 107.2-32.5 164.1s11 112.1 32.5 164.1c20.8 50.2 50.7 95.4 88.7 134.1 38 38.8 82.4 69.3 131.7 90.6 51.3 22 105.6 33.2 161.6 33.2 67.7 0 135-17 194.4-49.2 15.5-8.4 21.2-27.7 12.9-43.3-8.4-15.5-27.7-21.2-43.3-12.9-50.1 27.1-106.8 41.5-164 41.5-93.6 0-181.6-37.2-247.8-104.7-66.4-67.7-102.9-157.7-102.9-253.6s36.5-185.8 102.8-253.5c66.2-67.5 154.2-104.7 247.8-104.7s181.6 37.2 247.8 104.7c66.5 67.7 103 157.7 103 253.5 0 74.9-22.4 146.5-64.7 207.4-10.1 14.5-6.5 34.3 8 44.4 14.5 10.1 34.3 6.5 44.4-8 49.8-71.5 76.1-155.8 76.1-243.8 0-56.8-11-112.1-32.5-164.1-20.8-50.2-50.7-95.4-88.7-134.1-38-38.8-82.4-69.3-131.7-90.6-51.2-21.9-105.6-33.1-161.6-33.1zM659.218 832.311h-294.4c-17.6 0-31.8 14.2-31.8 31.8s14.2 31.8 31.8 31.8h294.4c17.6 0 31.8-14.2 31.8-31.8s-14.2-31.8-31.8-31.8zM512.018 322.211c-17.6 0-31.8 14.2-31.8 31.8v480.2c0 17.6 14.2 31.8 31.8 31.8s31.8-14.2 31.8-31.8v-480.1c0-17.7-14.2-31.9-31.8-31.9z"  horiz-adv-x="1024" />

    
    <glyph glyph-name="4" unicode="&#58966;" d="M521.216 839.68c-57.856 0-104.96-47.104-104.96-104.96s47.104-104.96 104.96-104.96 104.96 47.104 104.96 104.96-47.104 104.96-104.96 104.96zM767.488 739.84c-46.592 0-83.968-37.376-83.968-83.968 0-46.592 37.376-83.968 83.968-83.968s83.968 37.888 83.968 83.968c0 46.592-37.376 83.968-83.968 83.968zM364.544 312.832l-1.536-26.624v-1.024l17.92-307.2h-80.384l-13.312 261.632h-34.304l-16.384-261.632h-75.264l11.776 307.2-5.632 124.416-69.12-98.816-33.792 27.648 98.304 217.088h57.344l54.784-65.024 52.736 64.512h44.032l20.992 48.128h109.568l-8.192-13.824 10.752-22.016-23.552-168.96 36.864-37.376v-3.072l1.536 1.536 1.536-1.536v3.072l36.864 37.376-23.552 168.96 10.752 22.016-8.192 13.824h110.592l14.848-48.128h51.2l54.784-65.024 53.248 65.024h48.64l91.136-202.24-36.352-31.232-60.928 102.4-7.168-138.24v-1.024l17.92-307.2h-80.384l-13.312 261.632h-33.792l-16.384-261.632h-75.264l11.776 307.2-1.024 22.016-31.232-26.112 13.824-367.104h-90.112l-19.968 312.832h-40.96l-15.872-312.832h-95.232l20.992 367.104-43.52 32.256zM272.896 739.84c-46.592 0-83.968-37.376-83.968-83.968 0-46.592 37.888-83.968 83.968-83.968 46.592 0 83.968 37.888 83.968 83.968 0.512 46.592-37.376 83.968-83.968 83.968z"  horiz-adv-x="1024" />

    
    <glyph glyph-name="quanxianguanli" unicode="&#58898;" d="M262.4-51.2H115.2C128 153.6 300.8 320 512 320c51.2 0 96-6.4 140.8-25.6l44.8 44.8h-6.4c-12.8 6.4-25.6 12.8-38.4 12.8 19.2 12.8 38.4 25.6 57.6 44.8 51.2 51.2 83.2 121.6 83.2 198.4 0 76.8-32 147.2-83.2 198.4C659.2 851.2 588.8 876.8 512 876.8 435.2 876.8 364.8 844.8 313.6 793.6c-51.2-51.2-83.2-121.6-83.2-192 0-76.8 32-147.2 83.2-198.4 19.2-19.2 38.4-32 57.6-44.8l-38.4-19.2c-51.2-19.2-102.4-51.2-147.2-96-44.8-44.8-76.8-89.6-96-147.2-25.6-57.6-38.4-115.2-38.4-179.2 0-19.2 12.8-32 32-32h179.2c19.2 0 32 12.8 32 32s-19.2 32-32 32z m25.6 652.8C288 723.2 384 825.6 512 825.6c121.6 0 224-96 224-224 0-121.6-96-224-224-224-121.6 0-224 96-224 224z m646.4-505.6c-19.2 51.2-51.2 96-83.2 134.4l-44.8-38.4c57.6-64 96-147.2 102.4-243.2h-147.2c-19.2 0-32-12.8-32-32s12.8-32 32-32h179.2c19.2 0 32 12.8 32 32 0 64-12.8 121.6-38.4 179.2zM832 345.6c-12.8 12.8-32 12.8-38.4 0L512 64l-121.6 121.6c-12.8 12.8-32 12.8-38.4 0-12.8-12.8-12.8-32 0-38.4L492.8 0c6.4 0 12.8-6.4 19.2-6.4 6.4 0 12.8 0 19.2 6.4L832 300.8c12.8 12.8 12.8 32 0 44.8z"  horiz-adv-x="1024" />

    
    <glyph glyph-name="caigoudan" unicode="&#58909;" d="M584.282 304.188l-36.141-36.141 84.329-84.329 138.541 126.494-36.141 42.165-102.4-96.376zM584.282 527.059l-36.141-42.165 84.329-84.329 138.541 126.494-36.141 42.165-102.4-90.353zM373.459 768c0 18.071 12.047 30.118 24.094 30.118h222.871c12.047 0 24.094-12.047 24.094-30.118v-54.212c0-18.071-12.047-30.118-24.094-30.118h-222.871c-12.047 0-24.094 12.047-24.094 30.118v54.212zM319.247 768v-54.212c0-48.188 36.141-84.329 84.329-84.329h222.871c42.165 0 84.329 36.141 84.329 84.329v54.212c0 48.188-36.141 84.329-84.329 84.329h-222.871c-48.188 0-84.329-36.141-84.329-84.329zM740.894 743.906h48.188c48.188 0 84.329-36.141 84.329-84.329v-608.376c0-48.188-36.141-84.329-84.329-84.329h-548.141c-48.188 0-84.329 36.141-84.329 84.329v608.376c0 48.188 36.141 84.329 84.329 84.329h54.212v54.212h-54.212c-78.306 0-138.541-60.235-138.541-138.541v-608.376c0-78.306 60.235-138.541 138.541-138.541h548.141c78.306 0 138.541 60.235 138.541 138.541v608.376c0 78.306-60.235 138.541-138.541 138.541h-48.188v-54.212zM289.129 496.941h168.659v54.212h-168.659zM289.129 328.282h168.659v54.212h-168.659zM289.129 165.647h168.659v54.212h-168.659z"  horiz-adv-x="1024" />

    
    <glyph glyph-name="shenji" unicode="&#59002;" d="M868.352 105.984c-19.968 0-36.352-16.384-36.352-36.864V-40.96H193.024v361.984h4.608c19.968 0 36.352 16.384 36.352 36.864s-16.384 36.864-36.352 36.864h-4.608V466.944h4.608c19.968 0 36.352 16.384 36.352 36.864s-16.384 36.864-36.352 36.864h-4.608V613.376h4.608c19.968 0 36.352 16.384 36.352 36.864s-16.384 36.864-36.352 36.864h-4.608v122.88h638.976v-269.824H370.176c-19.968 0-36.352-16.384-36.352-36.864s16.384-36.864 36.352-36.864h498.688c19.968 0 36.352 16.384 36.352 36.864V813.056c0 38.912-30.208 70.656-67.584 70.656H188.416c-37.376 0-67.584-31.744-67.584-70.656v-125.952h-40.96c-19.968 0-36.352-16.384-36.352-36.864s16.384-36.864 36.352-36.864h40.96v-72.704h-40.96c-19.968 0-36.352-16.384-36.352-36.864s16.384-36.864 36.352-36.864h40.96V394.24h-40.96c-19.968 0-36.352-16.384-36.352-36.864s16.384-36.864 36.352-36.864h40.96v-365.056c0-38.912 30.208-70.656 67.584-70.656h648.704c37.376 0 67.584 31.744 67.584 70.656v112.64c0 21.504-15.872 37.888-36.352 37.888zM482.304 390.144c-13.824 25.6-40.448 43.52-71.68 43.52-44.544 0-80.896-36.864-80.896-82.432s36.352-82.432 80.896-82.432c33.28 0 61.44 19.968 74.24 49.152h198.144c19.456 0 35.328 15.872 35.328 35.84s-15.872 35.84-35.328 35.84l-200.704 0.512z m-71.68-74.24c-19.456 0-34.816 15.872-34.816 35.328 0 19.456 15.36 35.328 34.816 35.328s34.816-15.872 34.816-35.328c0.512-19.456-15.36-35.328-34.816-35.328z m557.568 72.704c-13.824 14.848-36.864 14.848-51.2 0.512l-207.36-204.8-58.368 61.44c-13.824 14.848-36.864 15.36-51.2 1.024s-14.848-37.376-1.024-52.224l83.456-88.064c6.656-7.168 15.872-11.264 25.6-11.264h0.512c9.216 0 18.432 3.584 25.088 10.24l233.472 230.912c14.848 14.336 15.36 37.376 1.024 52.224z"  horiz-adv-x="1024" />

    
    <glyph glyph-name="zhiwuguanli" unicode="&#58890;" d="M864 768h-192v-64h192a64 64 0 0 0 64-64v-576a64 64 0 0 0-64-64h-704a64 64 0 0 0-64 64V640a64 64 0 0 0 64 64h192V768h-192a128 128 0 0 1-128-128v-576a128 128 0 0 1 128-128h704a128 128 0 0 1 128 128V640a128 128 0 0 1-128 128zM160 64h64a128 128 0 0 0 256 0h64a192.064 192.064 0 0 1-384 0zM480 448a128 128 0 1 1-256.064-0.064A128 128 0 0 1 480 448zM288.512 448a63.488 63.488 0 1 0 126.976 0 63.488 63.488 0 0 0-126.976 0zM608 640V768a64 64 0 0 1-64 64h-64a64 64 0 0 1-64-64v-128h192z m-128 128h64v-64h-64V768zM640 448h192c17.6 0 32 14.4 32 32S849.6 512 832 512h-192c-17.6 0-32-14.4-32-32s14.4-32 32-32zM832 384h-192c-17.6 0-32-14.4-32-32s14.4-32 32-32h192c17.6 0 32 14.4 32 32S849.6 384 832 384zM832 256h-192c-17.6 0-32-14.4-32-32s14.4-32 32-32h192c17.6 0 32 14.4 32 32s-14.4 32-32 32z"  horiz-adv-x="1024" />

    
    <glyph glyph-name="xiangmuleixing" unicode="&#58891;" d="M864 704h-384a128 128 0 0 1-128 128h-192a128 128 0 0 1-128-128v-640a128 128 0 0 1 128-128h704a128 128 0 0 1 128 128V576a128 128 0 0 1-128 128z m-704 64h192a64 64 0 0 0 64-64h-320a64 64 0 0 0 64 64z m768-704a64 64 0 0 0-64-64h-704a64 64 0 0 0-64 64V640h768a64 64 0 0 0 64-64v-512zM416 544h-192v-128a64 64 0 0 1 64-64h128a64 64 0 0 1 64 64v64a64 64 0 0 1-64 64z m0-128h-128v64h128v-64zM416 288h-128a64 64 0 0 1-64-64v-128h192a64 64 0 0 1 64 64v64a64 64 0 0 1-64 64z m0-128h-128v64h128v-64zM544 480v-64a64 64 0 0 1 64-64h128a64 64 0 0 1 64 64v128h-192a64 64 0 0 1-64-64z m192-64h-128v64h128v-64zM736 288h-128a64 64 0 0 1-64-64v-64a64 64 0 0 1 64-64h192v128a64 64 0 0 1-64 64z m0-128h-128v64h128v-64z"  horiz-adv-x="1024" />

    
    <glyph glyph-name="yewubanli" unicode="&#58902;" d="M982.912 694.912a31.296 31.296 0 0 1-44.16 0l-554.304-554.304-298.304 298.24a31.808 31.808 0 0 1-44.992-44.928l318.4-318.336c0.64-0.832 0.896-1.728 1.6-2.432a31.04 31.04 0 0 1 22.4-9.024 31.488 31.488 0 0 1 23.424 9.152c1.344 1.344 1.92 3.008 2.944 4.416l573.056 573.056c12.16 12.16 12.16 32-0.064 44.16z"  horiz-adv-x="1024" />

    
    <glyph glyph-name="icon-p_mrpjinduzhuizong" unicode="&#58889;" d="M104.448 626.688H225.28c9.216-50.176 53.248-88.064 106.496-88.064s97.28 37.888 106.496 88.064h481.28c11.264 0 20.48 9.216 20.48 20.48s-9.216 20.48-20.48 20.48h-481.28c-9.216 50.176-53.248 88.064-106.496 88.064s-97.28-37.888-106.496-88.064H104.448c-11.264 0-20.48-9.216-20.48-20.48s9.216-20.48 20.48-20.48z m227.328 88.064c36.864 0 67.584-30.72 67.584-67.584s-30.72-67.584-67.584-67.584-67.584 30.72-67.584 67.584 30.72 67.584 67.584 67.584zM919.552 404.48H797.696c-9.216 50.176-53.248 88.064-106.496 88.064S593.92 454.656 584.704 404.48H104.448c-11.264 0-20.48-9.216-20.48-20.48s9.216-20.48 20.48-20.48h480.256c9.216-50.176 53.248-88.064 106.496-88.064S788.48 313.344 797.696 363.52h121.856c11.264 0 20.48 9.216 20.48 20.48s-9.216 20.48-20.48 20.48z m-228.352-88.064c-36.864 0-67.584 30.72-67.584 67.584 0 36.864 30.72 67.584 67.584 67.584 35.84 0 64.512-27.648 67.584-62.464 0-2.048-1.024-3.072-1.024-5.12s0-3.072 1.024-5.12c-3.072-34.816-31.744-62.464-67.584-62.464zM919.552 141.312H667.648c-9.216 50.176-53.248 88.064-106.496 88.064s-97.28-37.888-106.496-88.064H104.448c-11.264 0-20.48-9.216-20.48-20.48s9.216-20.48 20.48-20.48h350.208c9.216-50.176 53.248-88.064 106.496-88.064s97.28 37.888 106.496 88.064h251.904c11.264 0 20.48 9.216 20.48 20.48s-9.216 20.48-20.48 20.48z m-358.4-88.064c-36.864 0-67.584 30.72-67.584 67.584 0 36.864 30.72 67.584 67.584 67.584 35.84 0 64.512-27.648 67.584-62.464 0-2.048-1.024-3.072-1.024-5.12s0-3.072 1.024-5.12c-3.072-34.816-31.744-62.464-67.584-62.464z"  horiz-adv-x="1024" />

    
    <glyph glyph-name="sheji" unicode="&#58884;" d="M123.7-29.6c-7.7 0-14.9 3.4-19.8 9.5-4.9 6-6.8 13.8-5.2 21.3l49.1 236c2.1 9.9 6.9 18.8 14 25.9l530.6 530.6c19.4 19.4 53.2 19.4 72.6 0l156.5-156.5c9.7-9.7 15.1-22.6 15.1-36.3 0-13.7-5.4-26.6-15.1-36.3L390.9 34c-7.1-7.1-16.1-11.9-25.9-14l-236-49.1c-1.8-0.4-3.6-0.5-5.3-0.5z m605 805.6c-4.9 0-9.6-1.9-13.1-5.4L185 239.9c-2.6-2.6-4.3-5.8-5.1-9.4L133 5.3l225.3 46.8c3.6 0.7 6.8 2.5 9.4 5.1l530.7 530.7c3.5 3.5 5.4 8.2 5.4 13.1 0 5-1.9 9.6-5.4 13.1L741.8 770.6c-3.5 3.5-8.1 5.4-13.1 5.4zM832.7 482.6c-4.2 0-8.4 1.6-11.6 4.8L615.2 693.3c-6.4 6.4-6.4 16.8 0 23.2 6.4 6.4 16.8 6.4 23.2 0l205.9-205.9c6.4-6.4 6.4-16.8 0-23.2-3.2-3.2-7.4-4.8-11.6-4.8zM744.9-49.5c-12.6 0-25.2 4.8-34.8 14.4L505 170c-6.4 6.4-6.4 16.8 0 23.2 6.4 6.4 16.8 6.4 23.2 0L733.3-12c6.4-6.4 16.8-6.4 23.2 0l151.7 151.7c3.1 3.1 4.8 7.2 4.8 11.6s-1.7 8.5-4.8 11.6L704.1 367c-6.4 6.4-6.4 16.8 0 23.2 6.4 6.4 16.8 6.4 23.2 0l204.1-204.1c9.3-9.3 14.4-21.6 14.4-34.8 0-13.1-5.1-25.5-14.4-34.8L779.7-35.2c-9.6-9.5-22.2-14.3-34.8-14.3zM308.9 372.9c-4.2 0-8.4 1.6-11.6 4.8L92.6 582.3c-9.3 9.3-14.4 21.6-14.4 34.8 0 13.2 5.1 25.5 14.4 34.8L244.3 803.6c18.6 18.6 51 18.6 69.6 0l205.2-205.2c6.4-6.4 6.4-16.8 0-23.2-6.4-6.4-16.8-6.4-23.2 0L290.7 780.4c-6.2 6.2-16.9 6.2-23.2 0L115.8 628.7c-6.4-6.4-6.4-16.8 0-23.2l204.7-204.7c6.4-6.4 6.4-16.8 0-23.2-3.2-3.1-7.4-4.7-11.6-4.7zM176.4 505.3c-4.2 0-8.4 1.6-11.6 4.8-6.4 6.4-6.4 16.8 0 23.2l96.9 96.9c6.4 6.4 16.8 6.4 23.2 0 6.4-6.4 6.4-16.8 0-23.2L188 510.1c-3.2-3.2-7.4-4.8-11.6-4.8zM271.9 409.9c-4.2 0-8.4 1.6-11.6 4.8-6.4 6.4-6.4 16.8 0 23.2l96.9 96.9c6.4 6.4 16.8 6.4 23.2 0 6.4-6.4 6.4-16.8 0-23.2l-96.9-96.9c-3.3-3.2-7.5-4.8-11.6-4.8zM558.1 123.7c-4.2 0-8.4 1.6-11.6 4.8-6.4 6.4-6.4 16.8 0 23.2l96.9 96.9c6.4 6.4 16.8 6.4 23.2 0 6.4-6.4 6.4-16.8 0-23.2l-96.9-96.9c-3.2-3.2-7.4-4.8-11.6-4.8zM653.5 28.2c-4.2 0-8.4 1.6-11.6 4.8-6.4 6.4-6.4 16.8 0 23.2l96.8 96.9c6.4 6.4 16.8 6.4 23.2 0 6.4-6.4 6.4-16.8 0-23.2L665.1 33c-3.2-3.2-7.4-4.8-11.6-4.8z"  horiz-adv-x="1024" />

    
    <glyph glyph-name="yibanshixiang" unicode="&#58946;" d="M626.224406 223.665971H261.808062v-91.772145h364.416344v91.772145z m0 199.272293H261.808062V331.013421h364.416344v91.924843z m-119.884045 198.508798H261.808062v-91.772144h244.532299v91.772144z m28.14244 182.628095h-426.03042v-840.150314h671.173516V452.256487h91.802684v-501.769162a78.472055 78.472055 0 0 0-78.441515-78.334626h-697.834775a78.456785 78.456785 0 0 0-78.426245 78.334626V817.512675A78.456785 78.456785 0 0 0 95.152291 895.847301h439.40686v-91.772144zM993.893239 867.445273a46.924426 46.924426 0 0 1-66.363018 0L772.403231 699.170892 696.435441 776.894721a46.878616 46.878616 0 1 1-72.80692-59.094542l125.350671-120.174172a42.007516 42.007516 0 0 1 55.689353 3.20668l188.736057 200.646585A46.481599 46.481599 0 0 1 993.893239 867.445273z"  horiz-adv-x="1024" />

    
    <glyph glyph-name="caidan" unicode="&#58984;" d="M233.184 632.84c-22.936 0-43.448-20.512-43.448-43.448s20.512-42.24 43.448-42.24c22.928 0 42.24 19.312 42.24 42.24s-19.312 43.448-42.24 43.448zM865.336 590c0-18.776-13.68-34-30.544-34H370.72c-16.864 0-30.536 15.224-30.536 34S353.856 624 370.72 624h464.072c16.864 0 30.544-15.224 30.544-34zM233.184 423.504c-22.936 0-43.448-20.512-43.448-43.448s20.512-42.24 43.448-42.24c22.928 0 42.24 19.312 42.24 42.24s-19.312 43.448-42.24 43.448zM865.336 380.664c0-18.776-13.68-34-30.544-34H370.72c-16.864 0-30.536 15.224-30.536 34 0 18.784 13.672 34 30.536 34h464.072c16.864 0 30.544-15.216 30.544-34zM233.184 214.168c-22.936 0-43.448-20.512-43.448-43.448s20.512-42.24 43.448-42.24c22.928 0 42.24 19.312 42.24 42.24s-19.312 43.448-42.24 43.448zM865.336 171.328c0-18.776-13.68-34-30.544-34H370.72c-16.864 0-30.536 15.224-30.536 34 0 18.784 13.672 34 30.536 34h464.072c16.864 0 30.544-15.216 30.544-34z"  horiz-adv-x="1024" />

    
    <glyph glyph-name="arrow" unicode="&#58929;" d="M734.912 405.256L503.024 574.435c-4.226 3.21-9.575 5.141-15.375 5.141a25.431 25.431 0 0 1-14.141-4.266c-9.043-6.406-14.936-16.93-14.936-28.833 0-0.252 0.003-0.504 0.008-0.756l-0.001-338.32c0-12.28 5.797-23.562 15.023-29.609 3.956-2.637 8.818-4.207 14.048-4.207 5.8 0 11.149 1.932 15.438 5.188l231.887 169.132c8.478 6.171 13.589 16.955 13.589 28.674s-5.111 22.441-13.651 28.674zM971.911 396.966l-60.59 16.269-83.28 28.051c-16.734 5.212-28.672 20.563-28.672 38.702 0 22.342 18.113 40.456 40.456 40.456 3.249 0 6.408-0.383 9.436-1.106l41.552-16.899C848.85 615.082 753.42 698.861 636.22 723.697c-9.709 3.302-40.915 7.653-73.139 7.653-161.228 0-297.018-108.914-337.807-257.182-4.539-21.01-20.791-34.72-40.245-34.72-22.378 0-40.519 18.141-40.519 40.519 0 4.514 0.738 8.856 2.101 12.91C197.426 678.088 364.536 812.129 562.952 812.129c39.72 0 78.186-5.372 114.71-15.428 140.644-38.637 252.445-146.978 295.933-285.558l5.237 58.682c9.226 27.489 28.987 34.347 50.554 28.55 17.407-4.751 29.991-20.422 29.991-39.031 0-3.721-0.503-7.325-1.445-10.748l-36.525-123.016c-4.808-17.399-20.497-29.962-39.119-29.962-3.689 0-7.264 0.493-10.659 1.417z m-817.716-32.041l136.39-40.019c17.318-4.811 29.816-20.438 29.816-38.984a40.44 40.44 0 0 0-1.458-10.793c-5.668-21.284-21.439-33.003-42.944-27.268l-41.266 11.782c50.673-134.83 178.534-229.03 328.396-229.03 64.469 0 124.868 17.433 176.737 47.842 86.493 50.675 149.306 137.391 167.826 239.531-0.563-11.737 14.414-0.545 32.005-0.545 22.412 0 40.58-18.169 40.58-40.58 0-2.65-0.254-5.24-0.739-7.748-50.902-185.289-218.068-319.357-416.546-319.357-39.66 0-78.069 5.353-114.547 15.377-140.698 38.686-252.48 147.237-295.695 286.016l-11.77-56.957c-5.504-16.32-20.672-27.864-38.537-27.864-3.719 0-7.322 0.5-10.744 1.438-20.473 5.544-33.251 21.003-28.888 42.072L104.7 336.379c4.8 17.374 20.465 29.918 39.059 29.918 3.711 0 7.305-0.5 10.719-1.435z"  horiz-adv-x="1134" />

    
    <glyph glyph-name="renling" unicode="&#58959;" d="M286.0032 666.2144v-77.7216h457.1136v77.7216c0 12.1856-9.9328 22.1184-22.1184 22.1184h-109.8752V824.2176c0 39.6288-43.7248 71.7824-83.3536 71.7824h-20.3776c-39.6288 0-83.3536-32.1536-83.3536-71.7824v-135.8848h-115.9168c-12.1856 0-22.1184-9.8304-22.1184-22.1184z m228.5568 150.1184c24.576 0 44.4416-19.8656 44.4416-44.4416 0-24.4736-19.8656-44.4416-44.4416-44.4416-24.4736 0-44.4416 19.8656-44.4416 44.4416 0.1024 24.576 19.968 44.4416 44.4416 44.4416zM886.272 730.624c-0.2048 54.1696-61.0304 79.2576-90.112 79.2576H637.952v-77.1072h115.6096c24.9856 0 57.7536-7.2704 56.832-27.3408v-716.3904c0-21.504-19.968-38.912-44.9536-38.912h-506.7776c-24.9856 0-45.2608 17.408-45.2608 38.912V693.8624c0 21.504 20.2752 38.912 45.2608 38.912h136.2944V809.8816h-167.3216c-29.0816 0-90.112-35.9424-90.112-79.2576v-779.3664c0-57.2416 61.0304-79.2576 90.112-79.2576H796.0576c29.0816 0 90.112 11.8784 90.112 79.2576V730.624zM464.384 171.1104l-71.3728 128.4096s-55.6032-35.6352-131.2768-84.1728C382.976 154.0096 382.976 134.0416 474.3168 45.1584 571.392 208.7936 718.4384 320.9216 762.1632 339.456c-20.3776 18.5344-18.1248 92.7744-12.3904 168.3456-149.8112-57.0368-285.3888-336.6912-285.3888-336.6912z"  horiz-adv-x="1024" />

    
    <glyph glyph-name="jiance" unicode="&#58960;" d="M456 188c-6.3 0-12.7 2.1-17.9 6.5-11.9 9.9-13.5 27.6-3.6 39.4l113.7 136.4-129.1 43c-8.8 3-15.5 10-18 18.9-2.6 8.9-0.5 18.5 5.4 25.6l140 168c9.9 11.8 27.6 13.4 39.4 3.6 11.9-9.9 13.5-27.6 3.6-39.4L475.8 453.6l129.1-43c8.8-3 15.5-10 18-18.9 2.6-8.9 0.5-18.5-5.4-25.6l-140-168C472 191.4 464 188 456 188zM512 776l336-145.7v-188.7c0-304.3-257.2-420.9-336-449.4-78.8 28.5-336 145.2-336 449.4l0.2 189.3L512 776m0 56c-7.5 0-15-1.5-22.1-4.6l-336-145.3c-20.6-8.9-33.9-29.3-33.9-51.9v-188.7c0-344.2 294.3-473.7 372.9-502.1 6.3-2.3 12.7-3.4 19.1-3.4s12.8 1.1 19.1 3.4C609.7-32.2 904 97.3 904 441.5V630.2c0 22.6-13.4 43-33.9 51.9l-336 145.3C527 830.5 519.5 832 512 832z"  horiz-adv-x="1024" />

    
    <glyph glyph-name="renyuanguanli" unicode="&#58965;" d="M120.9-11.5h617.4c0 171.2-93.4 316.5-223.8 371.6 81 48.4 129.9 144.9 103.6 251-19.7 79.5-84.7 143.6-164.5 162.2-148.5 34.6-280.4-77.1-280.4-219.7 0-82.5 44.7-154 110.8-193.5C170 311.9 84.3 194.7 64.5 51.6c-4.6-33.5 22.6-63.1 56.4-63.1zM306 308l2.2 0.9c9.9 4.2 18.7 11.2 25.1 20.8 6.4 9.6 9.4 20.5 9.4 31.2v-2.3c0 9.5-2.4 19.1-7.4 27.9-5 8.8-12 15.8-20.2 20.6l-2.2 1.3c-52.1 31.1-83.2 85.3-83.2 144.9 0 93.5 76 169.5 169.5 169.5s169.5-76 169.5-169.5c0-59.6-31.1-113.8-83.2-144.9l-2.2-1.3c-8.1-4.9-15.2-11.8-20.2-20.6s-7.4-18.4-7.4-27.9V361c0-10.7 3-21.6 9.4-31.2 6.4-9.6 15.2-16.6 25.1-20.8l2.2-0.9c98.1-41.4 168.3-143.3 185.3-263h-557c17 119.6 87.2 221.5 185.3 262.9zM788.8 302.8c64.2 41.5 103 118.7 87.2 203.8-13.6 73.2-70.5 134.2-142.5 153.1-47.1 12.4-91.9 7.1-130.6-9.8 8.1-17.1 14.5-35.1 18.1-54.2 18.5 8.9 38.9 14.3 60.8 14.3 89.6 0 159.9-83.8 136.8-177.1-8.9-35.9-34.1-65.6-65.2-85.6l10.7 6.9c-7.7-5-14.3-11.8-19-20.4-4.7-8.6-6.9-17.9-6.9-27v-6.7c0-10.3 2.8-20.8 8.7-30.1 5.9-9.4 14.1-16.4 23.4-20.8l-6 2.9c74.4-35.6 126.3-113.5 139.8-206.9H681.8c2.3-18.5 3.8-37.3 3.8-56.5h217.5c34 0 61.4 30 56.3 63.6C941.9 166 878 260.2 788.8 302.8z"  horiz-adv-x="1024" />

    
    <glyph glyph-name="shigongzhong" unicode="&#58971;" d="M904 720H120c-30.9 0-56-25.1-56-56v-588c0-15.5 12.5-28 28-28s28 12.5 28 28v84h784v-84c0-15.5 12.5-28 28-28s28 12.5 28 28V664c0 30.9-25.1 56-56 56z m-210-56v-112H540V664h154z m-210 0v-112H330V664h154z m-364 0h154v-112H120V664z m784-448H120V496h784v-280zM750 552V664h154v-112H750zM264.7 424.5l112-168c5.4-8.1 14.3-12.5 23.3-12.5 5.4 0 10.8 1.5 15.5 4.7 12.9 8.6 16.4 26 7.8 38.8l-112 168c-8.6 12.9-26.1 16.3-38.8 7.8-12.9-8.6-16.4-26-7.8-38.8zM544.7 256.5c5.4-8.1 14.3-12.5 23.3-12.5 5.4 0 10.8 1.5 15.5 4.7 12.9 8.6 16.4 26 7.8 38.8l-112 168c-8.6 12.9-26.1 16.3-38.8 7.8-12.9-8.6-16.4-26-7.8-38.8l112-168zM712.7 256.5c5.4-8.1 14.3-12.5 23.3-12.5 5.4 0 10.8 1.5 15.5 4.7 12.9 8.6 16.4 26 7.8 38.8l-112 168c-8.7 12.9-26.1 16.3-38.8 7.8-12.9-8.6-16.4-26-7.8-38.8l112-168z"  horiz-adv-x="1024" />

    
    <glyph glyph-name="xianchangguanli" unicode="&#58979;" d="M549.8 721.9l-32.2-216.7-10.8-65.2H864L474.2 46.1l32.2 216.7 10.9 65.2H160l389.8 393.9M591.9 832c-6.8 0-13.7-2.5-19.4-8.2L72.2 319.4C54.7 301.9 67.1 272 91.8 272h359.3l-46.7-303.6c-3.1-18.7 11.8-32.4 27.6-32.4 6.8 0 13.7 2.5 19.4 8.2l500.4 504.4c17.5 17.5 5.1 47.4-19.6 47.4H572.9l46.7 303.6c3.1 18.6-11.9 32.4-27.7 32.4z"  horiz-adv-x="1024" />

    
    <glyph glyph-name="zuzhijigou" unicode="&#58991;" d="M876 280H772v78c0 28.7-23.3 52-52 52H538v78h78c28.7 0 52 23.3 52 52V748c0 28.7-23.3 52-52 52H408c-28.7 0-52-23.3-52-52v-208c0-28.7 23.3-52 52-52h78v-78H304c-28.7 0-52-23.3-52-52v-78H148c-28.7 0-52-23.3-52-52v-208c0-28.7 23.3-52 52-52h208c28.7 0 52 23.3 52 52V228c0 28.7-23.3 52-52 52h-52v78h416v-78h-52c-28.7 0-52-23.3-52-52v-208c0-28.7 23.3-52 52-52h208c28.7 0 52 23.3 52 52V228c0 28.7-23.3 52-52 52zM408 540V748h208v-208H408z m-52-312v-208H148V228h208z m520-208H668V228h208v-208z"  horiz-adv-x="1024" />

    
    <glyph glyph-name="zengjia" unicode="&#59036;" d="M502.447761-78.328358c-252.179104 0-458.507463 206.328358-458.507462 458.507462s206.328358 458.507463 458.507462 458.507463 458.507463-206.328358 458.507463-458.507463-204.41791-458.507463-458.507463-458.507462z m0 840.597015c-210.149254 0-382.089552-171.940299-382.089552-382.089553s171.940299-382.089552 382.089552-382.089552 382.089552 171.940299 382.089552 382.089552-170.029851 382.089552-382.089552 382.089553zM502.447761 166.208955c-15.283582 0-28.656716 13.373134-28.656716 28.656717V565.492537c0 15.283582 13.373134 28.656716 28.656716 28.656717s28.656716-13.373134 28.656717-28.656717v-370.626865c0-15.283582-11.462687-28.656716-28.656717-28.656717zM687.761194 351.522388H317.134328c-15.283582 0-28.656716 13.373134-28.656716 28.656716s13.373134 28.656716 28.656716 28.656717H687.761194c15.283582 0 28.656716-13.373134 28.656716-28.656717s-13.373134-28.656716-28.656716-28.656716z"  horiz-adv-x="1024" />

    
    <glyph glyph-name="bulushenhe" unicode="&#58901;" d="M599.68 520.832l-27.296-24.256V687.456h-80.832v-311.072a316.544 316.544 0 0 0 151.072 105.952c-14.112 12.768-27.872 25.408-42.944 38.496z m-184.48-40.704a2178.88 2178.88 0 0 0-55.712-83.616c-7.456 4.832-15.04 9.568-22.848 14.208v26.208a952.64 952.64 0 0 1 58.528 78.88v66.88h-90.88l49.056 28.992a1231.808 1231.808 0 0 1-66.336 84.736L222.912 660.16a1318.624 1318.624 0 0 0 56.576-77.472H179.424v-72.448h125.408c-37.152-48.704-82.496-94.592-136-137.696 9.312-26.4 17.664-54.464 25.088-84.16 23.04 21.344 44.8 42.336 65.248 62.944v-213.44h77.472v195.36c25.248-19.008 51.84-39.52 79.712-61.632l42.304 53.056c0.96 1.888 1.76 3.84 2.752 5.728l-53.152 35.136a2006.24 2006.24 0 0 1 62.688 79.424l-55.744 35.168zM653.472 193.056l40.416-78.24s65.6 159.104 169.088 212.064c-2.496-37.856-12.608-70.688 5.056-111.104-45.44-10.112-138.848-123.68-169.152-179.328-42.912 53.088-93.408 93.44-128.704 106.08l83.296 50.528zM440 76.576H92.032a10.624 10.624 0 0 0-10.624 10.592V765.92c0 5.824 4.768 10.624 10.624 10.624h678.752c5.888 0 10.656-4.768 10.656-10.624v-268.672a314.144 314.144 0 0 0 74.24-18.944V765.92a84.864 84.864 0 0 1-84.896 84.832H92.032A84.864 84.864 0 0 1 7.2 765.92v-678.752a84.896 84.896 0 0 1 84.832-84.864h385.536a318.272 318.272 0 0 0-37.568 74.272zM740.384 457.44a275.712 275.712 0 0 1-275.744-275.744 275.68 275.68 0 0 1 275.744-275.744 275.712 275.712 0 0 1 275.744 275.744 275.744 275.744 0 0 1-275.744 275.744z m0-477.248a201.504 201.504 0 1 0 0 403.008 201.504 201.504 0 1 0 0-403.008z"  horiz-adv-x="1024" />

    
    <glyph glyph-name="chengbengusuan" unicode="&#58905;" d="M381.984 186.592v228.704h94.464v-36.192a272.032 272.032 0 0 0 64.672 41.312V804.672c0 18.656-15.072 33.696-33.696 33.696H33.76c-18.656 0-33.696-15.04-33.696-33.696v-688.064c0-18.656 15.072-33.728 33.696-33.728h363.168a270.912 270.912 0 0 0-14.944 103.712z m94.464 287.584h-94.464V568.64h94.464v-94.464zM64.736 768.544h411.712v-122.016H64.736V768.544z m94.464-600.928H64.736V262.08h94.464v-94.464z m0 153.344H64.736v94.4h94.464v-94.4z m0 153.216H64.736V568.64h94.464v-94.464z m158.528-306.56h-94.4V262.08h94.4v-94.464z m0 153.344h-94.4v94.4h94.4v-94.4z m0 153.216h-94.4V568.64h94.4v-94.464zM653.696 415.968a242.88 242.88 0 0 1-243.072-248.192c0.576-29.984 6.528-58.56 17.12-84.864a243.264 243.264 0 0 1 225.952-153.248 243.168 243.168 0 0 1 0 486.304z m75.744-245.248v-25.696h-62.464v-35.296h62.464v-25.92h-62.464v-51.424h-32.256V83.84h-64.832v25.92h64.832v35.296h-64.832v25.696h55.328l-67.424 115.872h36.224c31.552-57.568 50.656-94.112 57.504-109.504h0.64c2.336 6.304 8.672 19.072 18.912 38.4l38.56 71.104h34.336l-68.16-115.872h53.632v-0.032zM817.536 402.208h117.888v80.224h-117.888v-80.224z m21.568 270.144a185.472 185.472 0 0 1 0-370.88 185.44 185.44 0 1 1 0 370.88z m-78.592-305.216H745.92v164.64a542.4 542.4 0 0 0-30.816-49.536 128.32 128.32 0 0 1-7.392 15.456 462.592 462.592 0 0 1 62.528 129.984l14.304-4.064c-7.04-21.696-15.008-42.432-24.032-62.272v-194.208z m123.424 189.696v-60.48h66.336v-129.024h-14.88v21.376h-117.888v-21.376h-14.88v129.024h66.272v60.48h-85.504v14.24h85.504V627.36h15.008v-56.288h86.56v-14.24h-86.528z"  horiz-adv-x="1024" />

    
    <glyph glyph-name="tuichu" unicode="&#59282;" d="M195.2 700.8c12.8 12.8 32 12.8 44.8 0 12.8-12.8 12.8-32 0-44.8-73.6-70.4-115.2-169.6-115.2-272 0-211.2 172.8-384 384-384s384 172.8 384 384c0 108.8-44.8 211.2-124.8 281.6-12.8 12.8-12.8 32-3.2 44.8 12.8 12.8 32 12.8 44.8 3.2 92.8-83.2 144-201.6 144-329.6 0-246.4-201.6-448-448-448s-448 201.6-448 448c6.4 121.6 54.4 233.6 137.6 316.8z m316.8 131.2c19.2 0 32-12.8 32-32v-384c0-19.2-12.8-32-32-32s-32 12.8-32 32v384c0 19.2 12.8 32 32 32z"  horiz-adv-x="1024" />

    
    <glyph glyph-name="shanchu" unicode="&#58926;" d="M418.909091 128V546.909091c0 13.963636-9.309091 23.272727-23.272727 23.272727s-23.272727-9.309091-23.272728-23.272727v-418.909091c0-13.963636 9.309091-23.272727 23.272728-23.272727s23.272727 9.309091 23.272727 23.272727z m395.636364-162.909091c0-25.6-20.945455-46.545455-46.545455-46.545454H256c-25.6 0-46.545455 20.945455-46.545455 46.545454V546.909091c0 13.963636-9.309091 23.272727-23.272727 23.272727s-23.272727-9.309091-23.272727-23.272727v-581.818182c0-51.2 41.890909-93.090909 93.090909-93.090909h512c51.2 0 93.090909 41.890909 93.090909 93.090909V546.909091c0 13.963636-9.309091 23.272727-23.272727 23.272727s-23.272727-9.309091-23.272727-23.272727v-581.818182z m139.636363 744.727273h-162.909091V802.909091c0 51.2-41.890909 93.090909-93.090909 93.090909H325.818182c-51.2 0-93.090909-41.890909-93.090909-93.090909v-93.090909H69.818182c-13.963636 0-23.272727-9.309091-23.272727-23.272727s9.309091-23.272727 23.272727-23.272728h884.363636c13.963636 0 23.272727 9.309091 23.272727 23.272728s-9.309091 23.272727-23.272727 23.272727z m-209.454545 0H279.272727V802.909091c0 25.6 20.945455 46.545455 46.545455 46.545454h372.363636c25.6 0 46.545455-20.945455 46.545455-46.545454v-93.090909z m-93.090909-581.818182V546.909091c0 13.963636-9.309091 23.272727-23.272728 23.272727s-23.272727-9.309091-23.272727-23.272727v-418.909091c0-13.963636 9.309091-23.272727 23.272727-23.272727s23.272727 9.309091 23.272728 23.272727z"  horiz-adv-x="1024" />

    
    <glyph glyph-name="tongzhi1" unicode="&#58892;" d="M625.7 623H178.9C121.4 623 73 565.2 73 507.6v-353.9C73 96.2 121.4 49 178.9 49h194c0.5 0 1 0.9 1.5 0.7l118-96.7h1.3c12.3 0 26.6-12.8 40.9-12.8 11.8 0 23.7 2.7 34.5 8.4 24 12.7 38.9 37.4 39.1 64.5 0 4-0.1 8.2-0.2 12.9-0.2 5.3-0.4 22.9-0.1 22.9h17.8c57.6 0 117.3 47.2 117.3 104.8V507.6c0 57.6-59.8 115.4-117.3 115.4zM663 153.8c0-19.2-18.2-24.8-37.3-24.8h-36.2c-12.7 0-24.5-10-33.3-19.1-19.5-20-18.5-56.2-17.7-83.2 0.1-4.1 0.2-9.2 0.2-12 0-0.7 0-3-2.1-4.1-1.4-0.8-2.6-0.9-3.3-0.6l-118 95.8-1.3 5.8c-12.1 8.1-26.3 17.4-40.9 17.4h-178c-35.3 0-41.9 21.5-41.9 40.7V507.6c0 19.2 22.7 35.4 41.9 35.4h430.8c19.2 0 37.3-16.2 37.3-35.4v-353.8zM845.9 832.6l-441.6-0.6h-0.1c-24.3 0-47.2-18.5-64.4-35.7-17.2-17.2-26.7-43.6-26.7-68 0-19.2 15.6-36.5 34.8-36.5s34.8 14.7 34.8 33.9c0 5.8 2.2 12.5 6.3 16.6 4.1 4.1 9.5 7.7 15.2 7.7l444.3-0.2c19.2 0 37.4-19.4 37.4-38.6V356c0-15.9-15.6-28.8-31.5-28.8-19.2 0-36.1-15.6-36.1-34.8 0-19.2 14.8-34.8 34-34.8 54.3 0 97.6 44.1 97.6 98.4V711.2c0.1 57.5-46.5 121.4-104 121.4z"  horiz-adv-x="1024" />

    
    <glyph glyph-name="navicon-dxjlcx" unicode="&#58948;" d="M788.48 156.67200000000003c-90.624 0-164.352 73.728-164.352 164.352 0 90.624 73.728 164.352 164.352 164.352s164.352-73.728 164.352-164.352c0-90.624-73.728-164.352-164.352-164.352z m0 272.384c-59.392 0-108.032-48.64-108.032-108.032s48.64-108.032 108.032-108.032 108.032 48.64 108.032 108.032-48.64 108.032-108.032 108.032zM984.576 82.94399999999996c-7.68 0-15.36 3.072-20.48 9.216l-96.768 104.448c-10.752 11.264-9.728 29.184 1.536 39.936 11.264 10.752 29.184 9.728 39.936-1.536l96.768-104.448c10.752-11.264 9.728-29.184-1.536-39.936-5.632-5.12-12.8-7.68-19.456-7.68zM514.56-43.51999999999998c-6.656 0-13.312 2.56-17.92 7.68l-140.288 140.8H35.84c-14.336 0-25.6 11.264-25.6 25.6v650.24c0 14.336 11.264 25.6 25.6 25.6h957.44c14.336 0 25.6-11.264 25.6-25.6V435.2c0-14.336-11.264-25.6-25.6-25.6s-25.6 11.264-25.6 25.6V755.2H61.44v-599.04h305.152c6.656 0 13.312-2.56 17.92-7.68l130.048-130.048 130.048 130.048c10.24 10.24 26.112 10.24 36.352 0 10.24-9.728 10.24-26.112 0-36.352L532.48-35.84000000000003c-4.608-5.12-11.264-7.68-17.92-7.68zM263.68 435.2m-53.76 0a53.76 53.76 0 1 1 107.52 0 53.76 53.76 0 1 1-107.52 0ZM514.56 435.2m-53.76 0a53.76 53.76 0 1 1 107.52 0 53.76 53.76 0 1 1-107.52 0Z"  horiz-adv-x="1024" />

    
    <glyph glyph-name="daibanshixiang" unicode="&#59042;" d="M125.098667 566.101333h773.802666v-500.736A22.698667 22.698667 0 0 0 876.032 42.666667H147.968a22.698667 22.698667 0 0 0-22.698667 22.698666V566.101333h-0.170666zM182.101333 702.634667h659.797334a56.832 56.832 0 0 0 56.832-56.832v-79.701334H125.098667v79.530667a56.832 56.832 0 0 0 57.002666 57.002667zM125.098667 566.101333V145.066667a34.133333 34.133333 0 0 1 34.133333-34.133334H716.8a56.661333 56.661333 0 0 1 40.277333 17.066667l125.952 125.952a56.32 56.32 0 0 1 17.066667 40.106667v273.066666zM512 225.962667c-133.290667 0-262.997333 5.12-386.901333 14.506666V145.066667a34.133333 34.133333 0 0 1 34.133333-34.133334H716.8a56.661333 56.661333 0 0 1 40.277333 17.066667l110.592 110.592c-115.029333-8.192-233.813333-12.629333-355.669333-12.629333zM756.224 128l125.952 125.952a58.538667 58.538667 0 0 1 11.434667 17.066667h-119.466667a34.133333 34.133333 0 0 1-34.133333-34.133334v-119.466666a53.077333 53.077333 0 0 1 16.213333 10.581333zM227.498667 469.333333h90.965333v-90.965333h-90.965333zM227.498667 298.666667h90.965333v-90.965334h-90.965333zM915.968 645.632a74.24 74.24 0 0 1-74.069333 74.069333h-54.954667V725.333333a17.066667 17.066667 0 0 1-34.133333 0v-5.632h-94.72V725.333333a17.066667 17.066667 0 0 1-34.133334 0v-5.632H529.066667V725.333333a17.066667 17.066667 0 0 1-34.133334 0v-5.632h-94.890666V725.333333a17.066667 17.066667 0 1 1-34.133334 0v-5.632h-94.72V725.333333a17.066667 17.066667 0 0 1-34.133333 0v-5.632h-54.954667a74.24 74.24 0 0 1-74.069333-74.069333v-580.266667A39.936 39.936 0 0 1 147.968 25.6h728.064a39.936 39.936 0 0 1 39.936 39.765333V566.101333v1.706667 1.706667z m-142.336-358.4a51.2 51.2 0 0 1-51.2-51.2V128a39.765333 39.765333 0 0 0-5.632 0H159.232a17.066667 17.066667 0 0 0-17.066667 17.066667V549.034667h739.669334v-256a44.032 44.032 0 0 0 0-6.485334z m83.968-34.133333l-101.034667-101.034667v83.968a17.066667 17.066667 0 0 0 17.066667 17.066667zM182.101333 685.568h54.954667v-5.802667a17.066667 17.066667 0 1 1 34.133333 0v5.802667h94.72v-5.802667a17.066667 17.066667 0 0 1 34.133334 0v5.802667H494.933333v-5.802667a17.066667 17.066667 0 1 1 34.133334 0v5.802667h94.890666v-5.802667a17.066667 17.066667 0 1 1 34.133334 0v5.802667h94.72v-5.802667a17.066667 17.066667 0 1 1 34.133333 0v5.802667h54.954667a39.936 39.936 0 0 0 39.936-39.936v-62.464H142.165333v62.464a39.936 39.936 0 0 0 39.936 39.936zM876.032 59.733333H147.968a5.802667 5.802667 0 0 0-5.802667 5.632v31.573334a52.053333 52.053333 0 0 1 17.066667-3.072H716.8a73.557333 73.557333 0 0 1 51.2 21.674666l113.493333 113.493334v-163.669334a5.802667 5.802667 0 0 0-5.461333-5.632zM204.8 629.76m-17.066667 0a17.066667 17.066667 0 1 1 34.133334 0 17.066667 17.066667 0 1 1-34.133334 0ZM819.2 629.76m-17.066667 0a17.066667 17.066667 0 1 1 34.133334 0 17.066667 17.066667 0 1 1-34.133334 0ZM318.634667 486.4h-91.136a17.066667 17.066667 0 0 1-17.066667-17.066667v-90.965333a17.066667 17.066667 0 0 1 17.066667-17.066667h91.136a17.066667 17.066667 0 0 1 17.066666 17.066667V469.333333a17.066667 17.066667 0 0 1-17.066666 17.066667z m-17.066667-90.965333h-57.002667V452.266667h57.002667zM318.634667 315.733333h-91.136a17.066667 17.066667 0 0 1-17.066667-17.066666v-90.965334a17.066667 17.066667 0 0 1 17.066667-17.066666h91.136a17.066667 17.066667 0 0 1 17.066666 17.066666V298.666667a17.066667 17.066667 0 0 1-17.066666 17.066666z m-17.066667-90.965333h-57.002667V281.6h57.002667zM385.024 440.832h62.464a17.066667 17.066667 0 0 1 0 34.133333h-62.464a17.066667 17.066667 0 0 1 0-34.133333zM549.888 406.698667h-164.864a17.066667 17.066667 0 0 1 0-34.133334h164.864a17.066667 17.066667 0 0 1 0 34.133334zM385.024 270.165333h62.464a17.066667 17.066667 0 0 1 0 34.133334h-62.464a17.066667 17.066667 0 0 1 0-34.133334zM549.888 236.032h-164.864a17.066667 17.066667 0 0 1 0-34.133333h164.864a17.066667 17.066667 0 0 1 0 34.133333z"  horiz-adv-x="1024" />

    
    <glyph glyph-name="shenhe" unicode="&#58883;" d="M479.9-21.7H138.3c-37.3 0-67.7 30.4-67.7 67.7V764.6c0 37.3 30.4 67.7 67.7 67.7h692c37.3 0 67.7-30.4 67.7-67.7v-359.3c0-8-6.5-14.5-14.5-14.5s-14.5 6.5-14.5 14.5V764.6c0 21.4-17.4 38.7-38.7 38.7h-692c-21.4 0-38.7-17.4-38.7-38.7V46c0-21.4 17.4-38.7 38.7-38.7h341.6c8 0 14.5-6.5 14.5-14.5s-6.5-14.5-14.5-14.5zM704.6 466.6H187.4c-8 0-14.5 6.5-14.5 14.5s6.5 14.5 14.5 14.5h517.2c8 0 14.5-6.5 14.5-14.5 0-8.1-6.5-14.5-14.5-14.5zM497.6 327.8H187.4c-8 0-14.5 6.5-14.5 14.5s6.5 14.5 14.5 14.5h310.2c8 0 14.5-6.5 14.5-14.5s-6.5-14.5-14.5-14.5zM406 189.1H187.4c-8 0-14.5 6.5-14.5 14.5s6.5 14.5 14.5 14.5H406c8 0 14.5-6.5 14.5-14.5s-6.5-14.5-14.5-14.5zM767.6 621.2H180.8c-8 0-14.5 6.5-14.5 14.5s6.5 14.5 14.5 14.5h586.8c8 0 14.5-6.5 14.5-14.5s-6.5-14.5-14.5-14.5zM903.6-62.7c-13 0-26.1 5-36 14.9L805.8 14c-5.7 5.7-5.7 14.8 0 20.5 5.7 5.7 14.8 5.7 20.5 0l61.8-61.8c8.5-8.5 22.4-8.5 31 0 8.5 8.5 8.5 22.4 0 31l-60.5 60.5c-5.7 5.7-5.7 14.8 0 20.5 5.7 5.7 14.8 5.7 20.5 0l60.5-60.5c19.8-19.8 19.8-52.1 0-72-10-9.9-23-14.9-36-14.9zM721.1-9.8c-105.3 0-191.1 85.7-191.1 191.1s85.7 191 191.1 191 191.1-85.7 191.1-191-85.8-191.1-191.1-191.1z m0 353.1c-89.4 0-162.1-72.7-162.1-162s72.7-162.1 162.1-162.1 162.1 72.7 162.1 162.1-72.8 162-162.1 162z"  horiz-adv-x="1024" />

    
    <glyph glyph-name="navicon-dxmbgl" unicode="&#59005;" d="M239.104 277.504m-40.448 0a40.448 40.448 0 1 1 80.896 0 40.448 40.448 0 1 1-80.896 0ZM755.712 251.904H380.928c-14.336 0-25.6 11.264-25.6 25.6s11.264 25.6 25.6 25.6h374.784c14.336 0 25.6-11.264 25.6-25.6s-11.264-25.6-25.6-25.6zM523.776-15.360000000000014c-6.144 0-12.8 2.56-17.408 6.656L409.6 81.91999999999996H51.2c-14.336 0-25.6 11.264-25.6 25.6V445.44c0 14.336 11.264 25.6 25.6 25.6h913.92c14.336 0 25.6-11.264 25.6-25.6v-337.92c0-14.336-11.264-25.6-25.6-25.6h-320.512l-103.936-91.136c-5.12-4.096-10.752-6.144-16.896-6.144zM76.8 133.12h343.04c6.656 0 12.8-2.56 17.408-6.656l87.04-81.408 93.696 81.92c4.608 4.096 10.752 6.144 16.896 6.144h304.64V419.84H76.8v-286.72zM860.16 524.8H156.16c-14.336 0-25.6 11.264-25.6 25.6s11.264 25.6 25.6 25.6H860.16c14.336 0 25.6-11.264 25.6-25.6s-11.264-25.6-25.6-25.6zM724.48 630.784H291.84c-14.336 0-25.6 11.264-25.6 25.6s11.264 25.6 25.6 25.6h432.64c14.336 0 25.6-11.264 25.6-25.6s-11.264-25.6-25.6-25.6z"  horiz-adv-x="1030" />

    
    <glyph glyph-name="genzong" unicode="&#58986;" d="M64 416h96v-64H64zM864 416h96v-64h-96zM512 384m-192 0a192 192 0 1 1 384 0 192 192 0 1 1-384 0ZM512 0a382.88 382.88 0 1 0 149.48 30.19A381.62 381.62 0 0 0 512 0z m0 717.55a332.42 332.42 0 1 1 129.82-26.2A331.44 331.44 0 0 1 512 717.55zM480 832h64v-96h-64zM480 32h64v-96h-64z"  horiz-adv-x="1024" />

    
    <glyph glyph-name="guochengguanli" unicode="&#58989;" d="M768 256v-192h192V256H768zM665.72 192H208a80 80 0 0 0 0 160h208v-64h192V480H416v-64H208a144.87 144.87 0 0 1-16-0.89C120.1 407.12 64 346 64 272s56.1-135.12 128-143.11a144.87 144.87 0 0 1 16-0.89h457.72v-64L768 160l-102.28 96zM672 323.93L710.28 288v64H752a144.13 144.13 0 0 1 144 144c0 74-56.1 135.12-128 143.11a144.87 144.87 0 0 1-16 0.89H256v64H64v-192h192v64h496a80 80 0 0 0 0-160h-41.72v64L672 444.07 642.09 416l-5.87-5.51L608 384l34.09-32z"  horiz-adv-x="1024" />

    
    <glyph glyph-name="icon" unicode="&#58893;" d="M199.3216 343.296v-284.3648h655.9232v284.3648a31.3856 31.3856 0 0 0 62.8224 0v-284.3648c0-34.6624-28.16-62.7712-62.8224-62.7712H199.3728c-34.7136 0-62.8224 28.1088-62.8224 62.7712v284.3648a31.3856 31.3856 0 1 0 62.7712 0zM531.2 724.8896c17.408 0 31.4368-14.0288 31.4368-31.3856v-487.2192H499.8144V693.504c0 17.3568 14.08 31.3856 31.3856 31.3856zM532.48 226.7648l128.3584 128.256a31.3856 31.3856 0 0 0 44.3904-44.3904L532.48 137.9328l-172.6976 172.6976a31.3856 31.3856 0 1 0 44.3904 44.3904l128.3072-128.256z"  horiz-adv-x="1024" />

    
    <glyph glyph-name="icon-test" unicode="&#58894;" d="M828.5 9.700000000000045H238.4c-9.9 0-18 8.1-18 18v4c0 9.9 8.1 18 18 18h590.1c9.9 0 18-8.1 18-18v-4c0-9.9-8.1-18-18-18zM828.5 211.39999999999998H238.4c-9.9 0-18 8.1-18 18v4c0 9.9 8.1 18 18 18h590.1c9.9 0 18-8.1 18-18v-4c0-9.9-8.1-18-18-18zM409 446.5H230.2c-17.6 0-32 14.4-32 32V657.3c0 17.6 14.4 32 32 32H409c17.6 0 32-14.4 32-32v-178.8c0-17.6-14.4-32-32-32z m-170.8 40H401V649.3H238.2v-162.8zM822.4 458.5H552.9c-11 0-20 9-20 20s9 20 20 20h269.5c11 0 20-9 20-20s-9-20-20-20zM822.4 626.5H552.9c-11 0-20 9-20 20s9 20 20 20h269.5c11 0 20-9 20-20s-9-20-20-20zM884.4-128H182.5c-46.3 0-83.9 37.7-83.9 83.9V804.1C98.6 850.3 136.3 888 182.5 888h701.9c46.3 0 83.9-37.7 83.9-83.9V-44c0-46.3-37.7-84-83.9-84zM182.5 848c-24.2 0-43.9-19.7-43.9-43.9V-44c0-24.2 19.7-43.9 43.9-43.9h701.9c24.2 0 43.9 19.7 43.9 43.9V804.1c0 24.2-19.7 43.9-43.9 43.9H182.5z"  horiz-adv-x="1024" />

    


  </font>
</defs>
</svg>
